<svg width="41" height="41" viewBox="0 0 41 41" fill="none" xmlns="http://www.w3.org/2000/svg">
<path d="M5.47103 6H5V33.3156H5.47103V6Z" fill="white"/>
<path d="M6.78988 6H6.31885V33.3156H6.78988V6Z" fill="white"/>
<path d="M11.1698 6H10.6987V28.4648H11.1698V6Z" fill="white"/>
<path d="M13.3519 6H12.8809V28.4648H13.3519V6Z" fill="white"/>
<path d="M16.2005 6H15.4556V28.4648H16.2005V6Z" fill="white"/>
<path d="M17.3612 6H16.6162V28.4648H17.3612V6Z" fill="white"/>
<path d="M25.1175 6H24.3726V28.4648H25.1175V6Z" fill="white"/>
<path d="M27.4408 6H26.6958V28.4648H27.4408V6Z" fill="white"/>
<path d="M34.1913 6H33.4463V28.4648H34.1913V6Z" fill="white"/>
<path d="M35.2773 6H34.7651V33.3156H35.2773V6Z" fill="white"/>
<path d="M36.6591 6H36.147V33.3156H36.6591V6Z" fill="white"/>
<path d="M23.1302 6H21.9536V28.4648H23.1302V6Z" fill="white"/>
<path d="M29.5726 6H28.396V28.4648H29.5726V6Z" fill="white"/>
<path d="M9.71005 6H7.6377V28.4648H9.71005V6Z" fill="white"/>
<path d="M20.589 6H18.5166V28.4648H20.589V6Z" fill="white"/>
<path d="M32.5987 6H30.5264V28.4648H32.5987V6Z" fill="white"/>
<path d="M14.2027 30.1025V30.451L12.5022 34.0082H11.9555L13.6499 30.5533V30.5413H11.7393V30.1025H14.2027Z" fill="white"/>
<path d="M14.7017 33.0173C14.7017 32.5245 14.9962 32.176 15.4769 31.9718L15.4709 31.9538C15.0384 31.7495 14.8522 31.413 14.8522 31.0765C14.8522 30.4576 15.3749 30.0371 16.0599 30.0371C16.8171 30.0371 17.1956 30.5118 17.1956 30.9986C17.1956 31.3291 17.0334 31.6836 16.5526 31.9118V31.9298C17.0394 32.122 17.3399 32.4645 17.3399 32.9392C17.3399 33.6182 16.7569 34.075 16.0119 34.075C15.1947 34.075 14.7019 33.5883 14.7019 33.0176L14.7017 33.0173ZM16.8049 32.9933C16.8049 32.5185 16.4744 32.2903 15.9456 32.14C15.4889 32.2723 15.2427 32.5728 15.2427 32.9452C15.2247 33.3417 15.5252 33.6902 16.0239 33.6902C16.4987 33.6902 16.8049 33.3958 16.8049 32.9933ZM15.3506 31.0403C15.3506 31.4308 15.6451 31.6413 16.0956 31.7613C16.4321 31.647 16.6906 31.4068 16.6906 31.0523C16.6906 30.7398 16.5044 30.4153 16.0296 30.4153C15.5912 30.4153 15.3506 30.7038 15.3506 31.0403Z" fill="white"/>
<path d="M17.9575 33.401C18.1078 33.4973 18.4563 33.6473 18.8227 33.6473C19.5017 33.6473 19.712 33.2148 19.706 32.8903C19.7 32.3436 19.2072 32.1091 18.6965 32.1091H18.402V31.7126H18.6965C19.081 31.7126 19.5677 31.5143 19.5677 31.0516C19.5677 30.7391 19.3695 30.4626 18.8827 30.4626C18.5702 30.4626 18.2697 30.6008 18.1015 30.7211L17.9632 30.3366C18.1675 30.1864 18.5642 30.0361 18.9847 30.0361C19.7539 30.0361 20.1024 30.4929 20.1024 30.9673C20.1024 31.3698 19.8622 31.7123 19.3815 31.8868V31.8988C19.8622 31.9951 20.2527 32.3556 20.2527 32.9023C20.2527 33.5273 19.7659 34.074 18.8285 34.074C18.39 34.074 18.0052 33.9357 17.813 33.8095L17.9572 33.4008L17.9575 33.401Z" fill="white"/>
<path d="M20.9139 34.0087V33.6842L21.3286 33.2818C22.3261 32.3323 22.7766 31.8275 22.7825 31.2388C22.7825 30.8424 22.5903 30.4755 22.0073 30.4755C21.6528 30.4755 21.3583 30.6559 21.1781 30.8061L21.0098 30.4336C21.2803 30.2053 21.6648 30.0371 22.1156 30.0371C22.9568 30.0371 23.3113 30.6138 23.3113 31.1729C23.3113 31.8938 22.7885 32.4768 21.9653 33.2698L21.6528 33.5582V33.5703H23.4073V34.009H20.9136L20.9139 34.0087Z" fill="white"/>
<path d="M25.6308 34.0082V32.9447H23.8164V32.5962L25.5588 30.1025H26.1298V32.53H26.6766V32.9447H26.1298V34.0082H25.6308ZM25.6308 32.53V31.226C25.6308 31.0218 25.6368 30.8175 25.6488 30.613H25.6308C25.5106 30.8412 25.4146 31.0095 25.3063 31.1897L24.3508 32.5177V32.5297H25.6305L25.6308 32.53Z" fill="white"/>
<path d="M29.3064 30.4757C29.1981 30.4697 29.0602 30.4758 28.9099 30.4997C28.0807 30.638 27.6422 31.2447 27.552 31.8877H27.57C27.7562 31.6414 28.0807 31.4369 28.5134 31.4369C29.2044 31.4369 29.6912 31.9357 29.6912 32.6986C29.6912 33.4136 29.2044 34.0746 28.3932 34.0746C27.558 34.0746 27.0112 33.4256 27.0112 32.4101C27.0112 31.6409 27.2877 31.0342 27.6722 30.6497C27.9967 30.3312 28.4292 30.1329 28.9219 30.073C29.0782 30.049 29.2104 30.043 29.3064 30.043V30.4757ZM29.1564 32.7289C29.1564 32.1702 28.8379 31.8337 28.3512 31.8337C28.0327 31.8337 27.7385 32.0319 27.5942 32.3144C27.558 32.3744 27.5342 32.4527 27.5342 32.5486C27.5462 33.1916 27.8407 33.6664 28.3935 33.6664C28.8502 33.6664 29.1567 33.2879 29.1567 32.7292L29.1564 32.7289Z" fill="white"/>
</svg>
