<svg width="41" height="41" viewBox="0 0 41 41" fill="none" xmlns="http://www.w3.org/2000/svg">
<g clip-path="url(#clip0_418_29416)">
<path d="M10.8839 35.4513C9.58115 31.4867 8.26214 27.5254 8.02368 23.3308C7.96332 22.2693 8.00394 21.214 8.31562 20.1837C9.19213 17.2872 12.0856 16.5438 14.2997 18.6756C15.9242 20.2395 17.0228 22.1705 18.1789 24.0534C19.6234 26.4064 20.9365 28.8373 22.6257 31.0451C23.3681 32.0157 24.1485 32.9706 25.2345 33.6142C26.9251 34.6161 28.1534 34.0537 28.3242 32.1593C28.5631 29.5081 27.9079 26.9378 27.4091 24.3607C26.7507 20.9573 25.9605 17.5724 25.8517 14.0942C25.7863 12.002 25.9511 9.94655 26.8702 7.99062C27.6749 6.27844 28.9583 5.05287 30.6918 4.24906C31.4742 3.88642 32.2819 3.83524 32.7822 4.67655C33.2986 5.54522 32.835 6.21205 32.0237 6.54425C29.6861 7.50137 28.8663 9.36906 28.6175 11.5864C28.2964 14.4476 28.7681 17.2592 29.2902 20.0628C29.9113 23.397 30.7752 26.6921 31.0281 30.0853C31.1125 31.2183 31.1229 32.3432 30.8266 33.4561C30.1112 36.1437 27.5583 37.364 24.8919 36.3107C22.2288 35.2589 20.729 33.0776 19.2863 30.8944C17.4578 28.1279 15.7754 25.2722 14.0171 22.4626C13.5264 21.6784 12.9339 20.965 12.2008 20.371C11.6396 19.9163 11.2226 20.0714 10.9704 20.6869C10.7457 21.2354 10.6881 21.8149 10.6915 22.4059C10.7067 24.9825 11.3032 27.4687 11.9759 29.9382C12.408 31.5244 12.8985 33.0961 13.5102 34.6322C14.0165 35.9039 13.7807 36.6305 12.8687 36.9237C11.9963 37.2038 11.3247 36.7108 10.8832 35.4508L10.8839 35.4513Z" fill="white"/>
</g>
<defs>
<clipPath id="clip0_418_29416">
<rect width="25" height="33" fill="white" transform="translate(8 4)"/>
</clipPath>
</defs>
</svg>
