<svg width="41" height="41" viewBox="0 0 41 41" fill="none" xmlns="http://www.w3.org/2000/svg">
<path fill-rule="evenodd" clip-rule="evenodd" d="M11.6673 34.333C12.5878 34.333 13.334 33.5868 13.334 32.6663C13.334 31.7459 12.5878 30.9997 11.6673 30.9997C10.7469 30.9997 10.0007 31.7459 10.0007 32.6663C10.0007 33.5868 10.7469 34.333 11.6673 34.333ZM11.6673 35.9997C13.5082 35.9997 15.0007 34.5072 15.0007 32.6663C15.0007 30.8255 13.5082 29.333 11.6673 29.333C9.82644 29.333 8.33398 30.8255 8.33398 32.6663C8.33398 34.5072 9.82644 35.9997 11.6673 35.9997Z" fill="white"/>
<path fill-rule="evenodd" clip-rule="evenodd" d="M8.33333 19.333C9.25377 19.333 10 18.5868 10 17.6663C10 16.7459 9.25377 15.9997 8.33333 15.9997C7.4129 15.9997 6.66667 16.7459 6.66667 17.6663C6.66667 18.5868 7.4129 19.333 8.33333 19.333ZM8.33333 20.9997C10.1742 20.9997 11.6667 19.5072 11.6667 17.6663C11.6667 15.8255 10.1742 14.333 8.33333 14.333C6.49246 14.333 5 15.8255 5 17.6663C5 19.5072 6.49246 20.9997 8.33333 20.9997Z" fill="white"/>
<path fill-rule="evenodd" clip-rule="evenodd" d="M31.6663 19.333C32.5868 19.333 33.333 18.5868 33.333 17.6663C33.333 16.7459 32.5868 15.9997 31.6663 15.9997C30.7459 15.9997 29.9997 16.7459 29.9997 17.6663C29.9997 18.5868 30.7459 19.333 31.6663 19.333ZM31.6663 20.9997C33.5072 20.9997 34.9997 19.5072 34.9997 17.6663C34.9997 15.8255 33.5072 14.333 31.6663 14.333C29.8255 14.333 28.333 15.8255 28.333 17.6663C28.333 19.5072 29.8255 20.9997 31.6663 20.9997Z" fill="white"/>
<path fill-rule="evenodd" clip-rule="evenodd" d="M28.3328 34.333C29.2533 34.333 29.9995 33.5868 29.9995 32.6663C29.9995 31.7459 29.2533 30.9997 28.3328 30.9997C27.4124 30.9997 26.6662 31.7459 26.6662 32.6663C26.6662 33.5868 27.4124 34.333 28.3328 34.333ZM28.3328 35.9997C30.1737 35.9997 31.6662 34.5072 31.6662 32.6663C31.6662 30.8255 30.1737 29.333 28.3328 29.333C26.492 29.333 24.9995 30.8255 24.9995 32.6663C24.9995 34.5072 26.492 35.9997 28.3328 35.9997Z" fill="white"/>
<path fill-rule="evenodd" clip-rule="evenodd" d="M20.0003 11C20.9208 11 21.667 10.2538 21.667 9.33333C21.667 8.4129 20.9208 7.66667 20.0003 7.66667C19.0799 7.66667 18.3337 8.4129 18.3337 9.33333C18.3337 10.2538 19.0799 11 20.0003 11ZM20.0003 12.6667C21.8412 12.6667 23.3337 11.1742 23.3337 9.33333C23.3337 7.49246 21.8412 6 20.0003 6C18.1595 6 16.667 7.49246 16.667 9.33333C16.667 11.1742 18.1595 12.6667 20.0003 12.6667Z" fill="white"/>
<path fill-rule="evenodd" clip-rule="evenodd" d="M29.099 16.857L21.5989 11.4998L22.5677 10.1436L30.0678 15.5007L29.099 16.857ZM18.1537 11.6764L10.901 16.8568L9.93224 15.5007L17.1849 10.3202L18.1537 11.6764ZM9.7023 19.9862L11.9246 29.9862L10.2975 30.3477L8.0752 20.3477L9.7023 19.9862ZM28.0754 29.9862L30.205 20.4028L31.8321 20.7643L29.7025 30.3477L28.0754 29.9862ZM14.1668 31.8336H25.8334V33.5003H14.1668V31.8336Z" fill="white"/>
</svg>
