<svg width="41" height="41" viewBox="0 0 41 41" fill="none" xmlns="http://www.w3.org/2000/svg">
<path d="M35 18.5398V18.9389C34.9355 19.2255 34.779 19.4557 34.5607 19.6465C34.2912 19.882 33.9779 20.0274 33.6264 20.09C33.3751 20.1348 33.1209 20.1296 32.8684 20.1072C32.6241 20.0856 32.3834 20.0375 32.1448 19.9798C31.8056 19.8976 31.4671 19.813 31.1274 19.7329C30.7568 19.6455 30.3806 19.6142 30.0009 19.6425C29.738 19.6618 29.4829 19.7192 29.2429 19.8309C28.8594 20.0092 28.6365 20.3079 28.5715 20.7275C28.5329 20.9774 28.5515 21.2247 28.5838 21.4723C28.6177 21.7321 28.6752 21.9875 28.7345 22.2426C28.8021 22.534 28.8712 22.8252 28.9348 23.1173C29.0031 23.431 29.0427 23.7481 29.0224 24.0701C29.0087 24.2851 28.9571 24.4899 28.8309 24.6677C28.6139 24.9735 28.3028 25.1141 27.9409 25.1529C27.7449 25.1739 27.5516 25.1391 27.361 25.0912C27.1999 25.051 27.039 25.0093 26.8769 24.9723C26.7306 24.9389 26.582 24.9214 26.4315 24.9304C26.1502 24.9476 25.9205 25.0665 25.7464 25.2877C25.6367 25.4269 25.6086 25.5871 25.6428 25.759C25.6649 25.8702 25.7099 25.9727 25.7688 26.0693C25.847 26.1975 25.9387 26.3154 26.0428 26.4236C26.292 26.6829 26.5737 26.901 26.8828 27.0841C27.1009 27.2134 27.3195 27.3413 27.5289 27.4848C27.7424 27.6311 27.9386 27.7966 28.1117 27.9896C28.2213 28.1114 28.3079 28.2473 28.3715 28.3978C28.4858 28.6678 28.5225 28.95 28.494 29.2402C28.4792 29.3905 28.4347 29.533 28.3539 29.6625C28.2528 29.8244 28.1129 29.9358 27.9294 29.9895C27.6286 30.0776 27.3452 30.035 27.0811 29.8684C26.9061 29.7582 26.769 29.6081 26.6536 29.4381C26.4984 29.2096 26.3862 28.9599 26.2953 28.7C26.2268 28.5036 26.1771 28.3017 26.1224 28.1015C26.0623 27.881 25.9978 27.6617 25.9179 27.4473C25.8364 27.2282 25.7349 27.0193 25.5964 26.8302C25.4178 26.5864 25.1938 26.4005 24.9081 26.2945C24.7206 26.225 24.5295 26.2057 24.3326 26.2525C23.9526 26.3432 23.7168 26.6448 23.6655 26.9508C23.6238 27.1995 23.6598 27.4398 23.7852 27.6624C23.8219 27.7274 23.8615 27.7912 23.9044 27.8522C23.976 27.9542 24.0506 28.0541 24.1253 28.154C24.2125 28.2706 24.2966 28.3891 24.3724 28.5135C24.4577 28.6532 24.5213 28.8021 24.5465 28.9641C24.5757 29.1516 24.5717 29.338 24.4895 29.5139C24.3967 29.7125 24.2438 29.8357 24.0231 29.8635C23.9145 29.8771 23.8075 29.863 23.7046 29.8232C23.5871 29.778 23.481 29.7141 23.3854 29.6322C23.2094 29.4812 23.0983 29.2901 23.0311 29.0706C22.981 28.9073 22.9489 28.7401 22.9254 28.5712C22.8954 28.3573 22.8707 28.1425 22.8248 27.9312C22.7689 27.6747 22.6611 27.4433 22.4865 27.2457C22.2604 26.9891 21.9798 26.9124 21.6522 26.9991C21.4467 27.0535 21.2877 27.175 21.1627 27.3439C21.047 27.4998 20.9754 27.6765 20.9236 27.8617C20.8609 28.0866 20.8258 28.3168 20.8176 28.55C20.8051 28.9031 20.8091 29.2557 20.8383 29.6086C20.8708 30.0022 20.9148 30.3942 20.9825 30.7831C21.0543 31.1965 21.132 31.6088 21.2062 32.0219C21.2642 32.3451 21.3078 32.6706 21.3353 32.9976C21.3619 33.3123 21.3707 33.628 21.3674 33.9441C21.3622 34.4268 21.2046 34.8569 20.9174 35.2399C20.7629 35.4463 20.5693 35.6077 20.3205 35.6932C20.301 35.6998 20.2828 35.7106 20.2642 35.7193H19.8405C19.7945 35.7002 19.7483 35.6816 19.7026 35.6616C19.3387 35.5023 19.0914 35.2388 18.9858 34.8515C18.9642 34.7716 18.9498 34.6894 18.9366 34.6074C18.8958 34.3544 18.9175 34.102 18.9486 33.8499C18.9797 33.5981 19.0339 33.3505 19.085 33.1022C19.2812 32.1461 19.4763 31.1895 19.6718 30.2331C19.8042 29.586 19.9363 28.9389 20.0699 28.2921C20.1064 28.1159 20.1191 27.9384 20.1092 27.7592C20.1022 27.6294 20.0734 27.5041 20.0199 27.3856C19.938 27.2047 19.8023 27.0843 19.6098 27.0316C19.4925 26.9993 19.3726 26.9899 19.2515 27.0054C19.1319 27.0207 19.0143 27.0462 18.8999 27.0857C18.758 27.1347 18.6226 27.1974 18.4871 27.261C18.3592 27.321 18.2318 27.3821 18.1025 27.4386C17.9689 27.497 17.8295 27.5387 17.6855 27.5632C17.2672 27.6344 16.9343 27.4965 16.686 27.1531C16.6665 27.1262 16.6481 27.0985 16.6305 27.0702C16.5374 26.9211 16.4712 26.7602 16.4206 26.5922C16.3558 26.3769 16.3176 26.1557 16.2679 25.9371C16.2208 25.7301 16.1662 25.5256 16.0689 25.3353C15.9709 25.1431 15.8371 24.9822 15.6571 24.8604C15.4713 24.7344 15.2684 24.6978 15.0508 24.7409C14.9613 24.7586 14.8722 24.781 14.7855 24.809C14.0124 25.059 13.3719 25.4987 12.8775 26.147C12.6728 26.4155 12.4985 26.7027 12.3439 27.0026C12.2106 27.261 12.0796 27.5208 11.9451 27.7785C11.8356 27.9889 11.7126 28.1907 11.568 28.3794C11.2736 28.7632 10.8924 29.0138 10.4227 29.128C10.2114 29.1794 9.99799 29.2035 9.78033 29.1681C9.44371 29.1135 9.14078 28.9856 8.89109 28.7509C8.42585 28.3135 8.2897 27.5837 8.55612 26.9918C8.70994 26.6497 8.94527 26.3758 9.25032 26.1598C9.44136 26.0248 9.64771 25.9185 9.86325 25.8288C10.1977 25.6893 10.5457 25.5914 10.8931 25.4922C11.1847 25.409 11.4768 25.3273 11.7612 25.221C12.3724 24.9925 12.8775 24.6208 13.2678 24.0965C13.4026 23.9156 13.5104 23.7191 13.5865 23.5061C13.6727 23.2647 13.717 23.0167 13.6921 22.7597C13.6685 22.517 13.5957 22.2885 13.4878 22.0704C13.3863 21.8648 13.2645 21.6716 13.1284 21.4879C12.98 21.2877 12.8268 21.0907 12.6782 20.8907C12.5764 20.7541 12.4752 20.617 12.38 20.4759C12.245 20.2754 12.1301 20.0639 12.0502 19.8347C11.9004 19.4039 11.9284 18.9855 12.135 18.5787C12.2259 18.3994 12.3437 18.2394 12.4723 18.0863C12.6087 17.9238 12.7592 17.7747 12.9109 17.6268C13.0568 17.4847 13.2059 17.346 13.3493 17.2016C13.604 16.9451 13.8025 16.6504 13.9363 16.3135C14.0282 16.0822 14.072 15.8438 14.0546 15.5944C14.0376 15.3508 13.9415 15.1451 13.7625 14.98C13.6186 14.8471 13.4624 14.7305 13.293 14.6314C13.0181 14.4702 12.7213 14.3647 12.4146 14.2853C11.8895 14.1494 11.3525 14.0941 10.8133 14.0587C10.548 14.0413 10.2821 14.0371 10.0175 14.009C9.61897 13.9666 9.23053 13.8802 8.85834 13.7294C8.46496 13.5702 8.10879 13.3506 7.81033 13.0472C7.38656 12.6164 7.12532 12.1022 7.04193 11.501C7.0351 11.4511 7.02309 11.4033 7 11.3585V10.9844C7.02638 10.9316 7.03651 10.8749 7.04499 10.8169C7.09682 10.4648 7.24145 10.1597 7.49963 9.90931C7.64662 9.7668 7.80303 9.63771 7.97758 9.53147C8.49746 9.21511 9.06069 9.0992 9.66326 9.17411C10.0859 9.22664 10.4795 9.36965 10.8453 9.5826C11.5814 10.0113 12.1995 10.5691 12.6714 11.2829C12.8617 11.5707 13.0341 11.8694 13.2136 12.1639C13.3609 12.4051 13.5126 12.6435 13.6871 12.8663C13.7999 13.0102 13.9142 13.1539 14.0553 13.2715C14.5523 13.6858 15.1229 13.8861 15.7718 13.8479C16.0783 13.8298 16.3431 13.7134 16.5631 13.4976C16.6917 13.3713 16.7942 13.2258 16.8856 13.0715C17.0191 12.8461 17.1284 12.6079 17.246 12.374C17.3336 12.1992 17.4271 12.0282 17.536 11.8654C17.6931 11.6308 17.8898 11.4358 18.1239 11.2798C18.4471 11.0645 18.8014 10.9743 19.1901 11.0216C19.4358 11.0515 19.6694 11.1215 19.8972 11.2141C20.1556 11.3189 20.4023 11.4478 20.6484 11.578C20.8395 11.6791 21.0291 11.7827 21.2225 11.8791C21.5094 12.0218 21.8029 12.1488 22.12 12.211C22.2912 12.2447 22.4639 12.2668 22.6377 12.2852C22.8589 12.3085 23.0782 12.2974 23.2964 12.2658C23.8104 12.1912 24.2509 11.9667 24.6223 11.6032C24.88 11.3509 25.0866 11.0612 25.2659 10.7503C25.4617 10.4111 25.6202 10.0544 25.7651 9.69141C25.9547 9.21675 26.1191 8.73268 26.2894 8.25095C26.4223 7.87476 26.5584 7.49974 26.7193 7.13462C26.8684 6.79589 27.0319 6.46425 27.2441 6.1592C27.483 5.81598 27.7817 5.53847 28.1482 5.33565C28.3355 5.23224 28.5336 5.15968 28.7458 5.12977C29.025 5.09043 29.2848 5.14178 29.5161 5.30621C29.6977 5.43529 29.8473 5.59592 29.9543 5.79309C30.1342 6.12452 30.1759 6.47672 30.1069 6.84443C30.0308 7.24959 29.856 7.60837 29.592 7.92355C29.3435 8.22036 29.0704 8.49407 28.7838 8.75342C28.5004 9.00995 28.2109 9.25962 27.9263 9.51497C27.365 10.0184 26.8465 10.5623 26.3924 11.1649C26.0974 11.5564 25.8122 11.9551 25.5241 12.3518C25.4412 12.4661 25.3665 12.586 25.2982 12.7101C25.1486 12.9822 25.1017 13.2731 25.1335 13.5779C25.1613 13.8422 25.2965 14.0354 25.5387 14.1496C25.6331 14.1942 25.733 14.2243 25.8357 14.2408C26.0948 14.2823 26.3561 14.3011 26.618 14.2849C27.0272 14.2594 27.4316 14.2849 27.8314 14.3768C28.0467 14.4262 28.2573 14.4907 28.4502 14.601C28.797 14.7989 28.9955 15.0952 29.0198 15.4959C29.0427 15.873 28.9689 16.232 28.7847 16.5648C28.7404 16.6447 28.6921 16.7224 28.6431 16.7997C28.5388 16.9648 28.4314 17.1278 28.3282 17.2937C28.2599 17.4032 28.2069 17.521 28.1671 17.644C28.1261 17.7712 28.0959 17.9012 28.1061 18.0357C28.1223 18.2484 28.1963 18.4413 28.3322 18.6062C28.6259 18.9622 29.0073 19.1499 29.466 19.1801C29.7604 19.1994 30.0452 19.148 30.322 19.0474C30.5573 18.9617 30.7802 18.85 30.9924 18.7188C31.2291 18.5725 31.4626 18.4206 31.6955 18.2685C31.8835 18.1457 32.0722 18.0246 32.2677 17.9144C32.5 17.7834 32.741 17.6725 32.9982 17.5985C33.3374 17.501 33.6773 17.4906 34.0189 17.586C34.1232 17.6153 34.225 17.6515 34.3213 17.7007C34.6714 17.8795 34.926 18.1363 34.9998 18.5391L35 18.5398Z" fill="white"/>
<path d="M20.4882 5C20.5443 5.01508 20.6003 5.02995 20.6564 5.04526C20.7732 5.0773 20.8842 5.12325 20.9834 5.19415C21.1259 5.29568 21.2269 5.4297 21.291 5.59247C21.361 5.77032 21.3793 5.95427 21.3607 6.14296C21.3282 6.46991 21.2335 6.77665 21.0644 7.05932C20.9749 7.2089 20.883 7.35705 20.7942 7.50687C20.6505 7.74926 20.5624 8.0112 20.5217 8.28964C20.5169 8.32238 20.5127 8.35584 20.5028 8.38717C20.4508 8.55089 20.2804 8.61496 20.1323 8.52686C20.1075 8.51202 20.0845 8.4939 20.0628 8.47482C19.7643 8.21122 19.5128 7.91088 19.338 7.55C19.1342 7.12905 19.0513 6.68478 19.0897 6.22002C19.1114 5.95949 19.194 5.71683 19.3486 5.50247C19.5123 5.27538 19.7288 5.12347 19.9973 5.04503C20.0449 5.03113 20.092 5.01536 20.1396 5.00052C20.2559 5.00052 20.3723 5.00052 20.4887 5.00052L20.4882 5Z" fill="white"/>
<path d="M30.5678 14.8536C30.1573 14.8298 29.7622 14.6635 29.485 14.2784C29.1309 13.787 29.2018 13.0973 29.6388 12.6853C29.8166 12.5176 30.0284 12.4163 30.2684 12.3805C30.7009 12.3162 31.0844 12.4333 31.4137 12.7174C31.8125 13.0613 31.9209 13.5741 31.7534 14.0568C31.5767 14.5663 31.1586 14.8466 30.5676 14.8534L30.5678 14.8536Z" fill="white"/>
<path d="M22.7995 8.75651C23.0243 8.75533 23.1967 8.81426 23.3385 8.95113C23.502 9.10895 23.5545 9.30018 23.4992 9.51973C23.4638 9.65918 23.3917 9.77959 23.2959 9.88607C23.212 9.97911 23.1159 10.0578 23.0122 10.1273C22.7885 10.2776 22.5586 10.4184 22.3254 10.5536C22.2931 10.5723 22.2599 10.5897 22.2252 10.6033C21.9247 10.7221 21.5968 10.5013 21.6142 10.1793C21.6389 9.71714 21.809 9.31692 22.1696 9.0114C22.2851 8.91364 22.4163 8.84415 22.5602 8.79775C22.6478 8.76948 22.7373 8.75393 22.7998 8.75605L22.7995 8.75651Z" fill="white"/>
<path d="M10.5349 22.7479C10.5392 22.4789 10.5764 22.2245 10.6894 21.9882C10.8623 21.6266 11.1387 21.3807 11.5342 21.2942C11.9007 21.2141 12.2062 21.3298 12.4373 21.6285C12.5565 21.7828 12.6232 21.9609 12.6646 22.1496C12.7449 22.5159 12.7113 22.8763 12.6069 23.2324C12.5647 23.3761 12.5117 23.5158 12.4371 23.6466C12.3148 23.86 12.1553 24.0369 11.9337 24.1506C11.7641 24.2378 11.5855 24.2811 11.3928 24.2611C11.2008 24.2413 11.0447 24.1554 10.9191 24.0128C10.7997 23.8774 10.7085 23.7238 10.6581 23.5497C10.5816 23.2852 10.5413 23.0148 10.5351 22.7481L10.5349 22.7479Z" fill="white"/>
<path d="M11.846 15.9698C11.8448 15.6551 12.1194 15.3262 12.5107 15.2671C12.849 15.216 13.1368 15.3258 13.3564 15.5854C13.6692 15.9552 13.5491 16.4934 13.223 16.7407C13.0968 16.8366 12.951 16.8861 12.7948 16.8925C12.5058 16.9042 12.2558 16.8055 12.0563 16.5952C11.9129 16.444 11.8492 16.2579 11.846 15.9698Z" fill="white"/>
<path d="M29.6447 30.7473C29.6442 30.8983 29.6174 31.0236 29.5601 31.141C29.4285 31.4111 29.207 31.5602 28.9109 31.5762C28.5738 31.5944 28.2926 31.4684 28.0924 31.1897C27.869 30.879 27.8902 30.3035 28.3534 30.0427C28.5095 29.9549 28.6794 29.9229 28.8582 29.9455C29.0801 29.9735 29.2718 30.063 29.427 30.2263C29.5712 30.378 29.6407 30.5596 29.6447 30.7473Z" fill="white"/>
</svg>
