<svg width="41" height="41" viewBox="0 0 41 41" fill="none" xmlns="http://www.w3.org/2000/svg">
<mask id="mask0_418_29365" style="mask-type:luminance" maskUnits="userSpaceOnUse" x="7" y="7" width="28" height="28">
<path fill-rule="evenodd" clip-rule="evenodd" d="M31.5 18.375C31.5 20.7912 29.5412 22.75 27.125 22.75C24.7088 22.75 22.75 20.7912 22.75 18.375C22.75 15.9588 24.7088 14 27.125 14C29.5412 14 31.5 15.9588 31.5 18.375ZM29.75 18.375C29.75 19.8247 28.5747 21 27.125 21C25.6753 21 24.5 19.8247 24.5 18.375C24.5 16.9253 25.6753 15.75 27.125 15.75C28.5747 15.75 29.75 16.9253 29.75 18.375Z" fill="white"/>
<path fill-rule="evenodd" clip-rule="evenodd" d="M7 7V35H35V7H7ZM33.25 8.75H8.75V25.0125L15.75 18.0125L30.9875 33.25H33.25V8.75ZM8.75 33.25V27.4875L15.75 20.4875L28.5124 33.25H8.75Z" fill="white"/>
</mask>
<g mask="url(#mask0_418_29365)">
<path d="M8.75 8.75V7H7V8.75H8.75ZM33.25 8.75H35V7H33.25V8.75ZM8.75 25.0125H7V29.2375L9.98755 26.25L8.75 25.0125ZM15.75 18.0125L16.9876 16.7752L15.75 15.5376L14.5124 16.7752L15.75 18.0125ZM30.9876 33.25L29.75 34.4875L30.2624 35H30.9876V33.25ZM33.25 33.25V35H35V33.25H33.25ZM8.75 27.4875L7.51245 26.25L7 26.7625V27.4875H8.75ZM8.75 33.25H7V35H8.75V33.25ZM15.75 20.4875L16.9876 19.25L15.75 18.0125L14.5124 19.25L15.75 20.4875ZM28.5124 33.25V35H32.7376L29.75 32.0125L28.5124 33.25ZM7 7V5.25H5.25V7H7ZM7 35H5.25V36.75H7V35ZM35 35V36.75H36.75V35H35ZM35 7H36.75V5.25H35V7ZM8.75 10.5H33.25V7H8.75V10.5ZM10.5 25.0125V8.75H7V25.0125H10.5ZM33.25 31.5H30.9876V35H33.25V31.5ZM31.5 8.75V33.25H35V8.75H31.5ZM7 27.4875V33.25H10.5V27.4875H7ZM29.75 32.0125L16.9876 19.25L14.5124 21.7248L27.2751 34.4875L29.75 32.0125ZM8.75 35H28.5124V31.5H8.75V35ZM27.125 22.75C29.5412 22.75 31.5 20.7912 31.5 18.375H28C28 18.8582 27.6082 19.25 27.125 19.25V22.75ZM22.75 18.375C22.75 20.7912 24.7088 22.75 27.125 22.75V19.25C26.6418 19.25 26.25 18.8582 26.25 18.375H22.75ZM27.125 14C24.7088 14 22.75 15.9588 22.75 18.375H26.25C26.25 17.8918 26.6418 17.5 27.125 17.5V14ZM31.5 18.375C31.5 15.9588 29.5412 14 27.125 14V17.5C27.6082 17.5 28 17.8918 28 18.375H31.5ZM27.125 24.5C30.5077 24.5 33.25 21.7577 33.25 18.375H29.75C29.75 19.8247 28.5747 21 27.125 21V24.5ZM21 18.375C21 21.7577 23.7423 24.5 27.125 24.5V21C25.6753 21 24.5 19.8247 24.5 18.375H21ZM27.125 12.25C23.7423 12.25 21 14.9923 21 18.375H24.5C24.5 16.9253 25.6753 15.75 27.125 15.75V12.25ZM33.25 18.375C33.25 14.9923 30.5077 12.25 27.125 12.25V15.75C28.5747 15.75 29.75 16.9253 29.75 18.375H33.25ZM14.5124 16.7752L7.51245 23.7752L9.98755 26.25L16.9876 19.25L14.5124 16.7752ZM32.2249 32.0125L16.9876 16.7752L14.5124 19.25L29.75 34.4875L32.2249 32.0125ZM14.5124 19.25L7.51245 26.25L9.98731 28.7248L16.9873 21.7248L14.5124 19.25ZM7 8.75H35V5.25H7V8.75ZM8.75 35V7H5.25V35H8.75ZM35 33.25H7V36.75H35V33.25ZM33.25 7V35H36.75V7H33.25Z" fill="white"/>
</g>
</svg>
