<svg width="41" height="41" viewBox="0 0 41 41" fill="none" xmlns="http://www.w3.org/2000/svg">
<path d="M33.9967 32.6774C33.8995 32.4576 33.7525 32.2765 33.5828 32.107C25.6931 24.2167 17.8046 16.3253 9.91763 8.43251C9.67095 8.18573 9.41261 7.99223 9.03858 8.00024C8.60375 8.00962 8.28985 8.20882 8.10924 8.59008C7.92886 8.97088 7.9723 9.34758 8.23635 9.68561C8.3038 9.77184 8.38473 9.84753 8.46223 9.9253C16.3384 17.8051 24.2151 25.6844 32.0902 33.5653C32.2653 33.7405 32.4498 33.8965 32.6777 33.9964C33.0751 33.9964 33.4724 33.9914 33.8695 33.9998C33.9788 34.0021 34.0021 33.979 33.9999 33.8695C33.9914 33.4722 33.9964 33.0747 33.9964 32.6772L33.9967 32.6774Z" fill="white"/>
</svg>
