<svg width="41" height="41" viewBox="0 0 41 41" fill="none" xmlns="http://www.w3.org/2000/svg">
<path d="M37.0722 23.2589C35.9858 23.5746 34.8992 23.889 33.8134 24.2065C33.4087 24.3247 33.0102 24.4693 32.6006 24.5646C32.3021 24.6341 32.2708 24.7145 32.4641 24.9675C33.7414 26.6412 35.0019 28.3289 36.2818 30.0007C36.4658 30.241 36.455 30.3592 36.217 30.5388C34.8745 31.5522 33.5387 32.5752 32.2111 33.6098C31.9786 33.791 31.8594 33.775 31.6809 33.5364C30.4327 31.8682 29.1663 30.2146 27.9177 28.5468C27.7404 28.3099 27.6651 28.3468 27.5273 28.5717C26.8275 29.7146 26.1173 30.8508 25.4075 31.9873C25.3377 32.0989 25.2948 32.2897 25.1577 32.2803C25.0075 32.27 25.0167 32.0696 24.9811 31.9473C23.574 27.1197 22.1709 22.2909 20.7674 17.4623C20.4515 16.3759 20.1283 15.2915 19.8255 14.2012C19.7468 13.9178 19.6082 13.823 19.3293 13.8297C18.6317 13.847 17.9336 13.8326 17.2358 13.8367C17.0052 13.838 16.8159 13.8249 16.8311 13.4976C16.8423 13.2549 16.6969 13.3571 16.5912 13.4159C15.3654 14.0981 14.2399 14.9238 13.2215 15.9085C10.6982 18.3487 9.23121 21.3937 8.45097 24.8307C8.14144 26.194 7.97096 27.5775 7.89606 28.9768C7.87032 29.4577 7.85745 29.9379 7.84184 30.4186C7.8334 30.6789 7.93362 30.7621 8.17352 30.7543C8.5609 30.7414 8.94912 30.7602 9.3365 30.7484C9.588 30.7407 9.69687 30.8342 9.69561 31.106C9.68885 32.6089 9.68843 34.1117 9.69561 35.6146C9.69708 35.8966 9.59053 36.0013 9.32215 36C7.88214 35.9934 6.44191 35.9937 5.00189 36C4.73815 36.0011 4.62169 35.9069 4.62316 35.62C4.63055 34.1172 4.62992 32.6143 4.62316 31.1115C4.6219 30.8447 4.72043 30.737 4.97721 30.7488C5.25361 30.7615 5.53169 30.7376 5.80767 30.7547C6.07415 30.7711 6.1499 30.6544 6.14884 30.3915C6.14251 28.8527 6.28071 27.3253 6.54065 25.8107C7.11708 22.4515 8.28323 19.3486 10.3111 16.6298C11.1261 15.5371 12.0551 14.5545 13.0972 13.6897C13.1472 13.6482 13.1972 13.6062 13.2282 13.5053C12.8596 13.5859 12.4908 13.6648 12.1226 13.7476C10.4472 14.1243 8.77273 14.5058 7.09577 14.875C6.86094 14.9268 6.71388 15.0155 6.60838 15.262C6.24632 16.1078 5.49498 16.5096 4.57358 16.3927C3.86338 16.3027 3.2053 15.6466 3.04052 14.8643C2.87088 14.0596 3.24602 13.1852 3.93913 12.7705C4.66473 12.3361 5.51376 12.4237 6.15559 13.0198C6.3151 13.1681 6.4628 13.2022 6.6664 13.1561C9.94015 12.413 13.2141 11.6716 16.4912 10.9445C16.7714 10.8822 16.8503 10.7594 16.8417 10.483C16.8252 9.96733 16.8457 9.45058 16.8339 8.93448C16.828 8.68124 16.9244 8.58619 17.1643 8.58707C18.6264 8.59209 20.0888 8.59144 21.551 8.58772C21.7757 8.58707 21.8588 8.68408 21.8704 8.917C21.8831 9.17112 21.7367 9.50979 21.9489 9.65815C22.1285 9.78357 22.4129 9.60244 22.6492 9.54956C25.6328 8.88117 28.6158 8.20906 31.6001 7.54308C31.8225 7.49348 31.9577 7.3945 32.0594 7.16595C32.4512 6.28562 33.3102 5.84884 34.1915 6.04723C35.0268 6.23536 35.6686 7.01191 35.6703 7.9307C35.6718 8.70768 35.3344 9.32713 34.6491 9.69333C33.925 10.0805 33.2209 9.99377 32.5996 9.47068C32.3504 9.26092 32.1392 9.23405 31.8463 9.30069C28.6593 10.0259 25.471 10.7443 22.2796 11.4481C21.9542 11.5198 21.8681 11.6576 21.8508 11.9928C21.8274 12.4421 21.992 12.6879 22.3462 12.9321C27.1395 16.2389 31.9216 19.5627 36.7071 22.8817C36.8268 22.9648 36.9504 23.0412 37.0722 23.1208V23.2584V23.2589ZM33.1435 22.5551C29.3163 19.8994 25.5706 17.3004 21.7417 14.6434C23.0714 19.214 24.3709 23.6814 25.6869 28.2046C25.7786 28.0838 25.8301 28.0261 25.8706 27.961C26.3584 27.1816 26.8456 26.4017 27.3313 25.6208C27.5813 25.2186 27.578 25.219 27.8575 25.5889C29.2501 27.4309 30.6462 29.2698 32.0331 31.1163C32.1826 31.3156 32.29 31.3431 32.4861 31.1832C32.9209 30.8285 33.3648 30.4846 33.8218 30.1615C34.04 30.007 34.0206 29.8962 33.8723 29.7037C33.2298 28.8704 32.6006 28.0261 31.966 27.1862C31.1538 26.1116 30.3445 25.0346 29.5254 23.9657C29.3589 23.7483 29.4102 23.6576 29.6465 23.596C29.8932 23.5318 30.1358 23.4516 30.3804 23.3786C31.2707 23.1131 32.1613 22.8476 33.1435 22.5549V22.5551ZM7.94522 33.3961C7.94522 32.5615 7.94522 32.5562 7.13734 32.5628C6.25159 32.57 6.38389 32.4411 6.37608 33.3736C6.36933 34.1884 6.3746 34.1884 7.1654 34.1884C7.68528 34.1884 7.94522 33.9242 7.94522 33.3959V33.3961ZM18.5465 11.1833C18.5465 11.3895 18.538 11.5962 18.5484 11.8021C18.5648 12.1246 18.8096 12.014 18.9756 12.0188C19.2122 12.0258 19.1309 11.8504 19.0984 11.7282C19.013 11.4083 18.9151 11.0919 18.8256 10.7732C18.8054 10.7013 18.7501 10.6067 18.8412 10.5619C18.8828 10.5413 18.967 10.5863 19.0195 10.6215C19.3075 10.8145 19.5932 11.0111 19.8768 11.211C20.0348 11.3225 20.1036 11.3002 20.1215 11.0878C20.1766 10.4388 20.1481 10.3997 19.5312 10.3995C19.4537 10.3995 19.3763 10.3984 19.2987 10.3995C18.4201 10.4128 18.5577 10.2785 18.5463 11.1833H18.5465Z" fill="white"/>
<path d="M21.3018 14.0186L25.6216 29.4765L27.3076 26.4577L32.3651 32.5602L35.3504 30.2402L30.89 23.7298L35.6314 22.7841L21.3018 14.0186Z" fill="white"/>
</svg>
