<svg width="28" height="28" viewBox="0 0 28 28" fill="none" xmlns="http://www.w3.org/2000/svg">
<g clip-path="url(#clip0_351_933)">
<mask id="mask0_351_933" style="mask-type:luminance" maskUnits="userSpaceOnUse" x="5" y="5" width="18" height="18">
<path d="M23 5H5V23H23V5Z" fill="white"/>
</mask>
<g mask="url(#mask0_351_933)">
<path d="M19.6189 8.11359C19.6268 8.67038 19.4072 9.20631 19.0107 9.59738L16.0189 6.58116C16.413 6.18945 16.9469 5.97067 17.5026 5.9731C18.6714 5.97299 19.6189 6.92043 19.619 8.08915C19.619 8.09728 19.619 8.10547 19.6189 8.11359ZM11.3973 17.1865L8.4055 14.219L15.3379 7.28664L18.3297 10.2785L11.3973 17.1866V17.1865ZM7.33519 18.2811L8.01629 15.192L10.4243 17.6L7.33519 18.2811ZM17.5027 5.00012C16.6767 4.9928 15.8843 5.32737 15.3135 5.92445L7.38385 13.8784C7.31394 13.9347 7.2629 14.0111 7.23788 14.0973L6.21629 18.7918C6.18842 18.9604 6.24259 19.1321 6.36226 19.254C6.45209 19.3457 6.57449 19.3981 6.70281 19.3999H6.80013L11.4947 18.3783C11.5862 18.363 11.6709 18.3207 11.7379 18.2567L19.6918 10.3027C20.2729 9.72297 20.5971 8.93434 20.5918 8.11359C20.5929 7.28647 20.2698 6.49185 19.6918 5.90012C19.1121 5.31907 18.3235 4.99489 17.5027 5.00012Z" fill="white"/>
</g>
<path d="M22.6349 22.5134C22.6349 22.2448 22.4171 22.027 22.1484 22.027H5.85121C5.58255 22.027 5.36475 22.2448 5.36475 22.5134C5.36475 22.7821 5.58255 22.9999 5.85121 22.9999H22.1484C22.4171 22.9999 22.6349 22.7822 22.6349 22.5134Z" fill="white"/>
</g>
<defs>
<clipPath id="clip0_351_933">
<rect width="18" height="18" fill="white" transform="translate(5 5)"/>
</clipPath>
</defs>
</svg>
