<svg width="28" height="28" viewBox="0 0 28 28" fill="none" xmlns="http://www.w3.org/2000/svg">
<path d="M25 10.0311C25 8.88998 24.0402 7.96154 22.8605 7.96154H14.0563L13.7111 7.61699C13.3184 7.22474 12.7693 7 12.2045 7H5.09772C3.94096 7 3 7.9102 3 9.02914V19.9709C3 21.0898 3.94096 22 5.09772 22H22.9023C24.059 22 25 21.0898 25 19.9709V10.0311ZM22.8605 8.87959C23.5169 8.87959 24.0509 9.39614 24.0509 10.0311V10.5479C23.7205 10.338 23.3261 10.2154 22.9023 10.2154H16.8005C16.4913 10.2154 16.1908 10.0923 15.9756 9.87761L14.9761 8.87988L22.8605 8.87959ZM24.0509 19.9711C24.0509 20.5839 23.5355 21.0822 22.9023 21.0822H5.09772C4.46423 21.0822 3.94908 20.5836 3.94908 19.9711V9.02914C3.94908 8.41636 4.46452 7.91805 5.09772 7.91805H12.2045C12.5137 7.91805 12.8142 8.04123 13.0295 8.25587L15.2937 10.5162C15.6864 10.9085 16.2355 11.1332 16.8003 11.1332H22.902C23.5355 11.1332 24.0506 11.6318 24.0506 12.2443L24.0509 19.9711Z" fill="white"/>
</svg>
