<svg width="28" height="28" viewBox="0 0 28 28" fill="none" xmlns="http://www.w3.org/2000/svg">
<g clip-path="url(#clip0_351_989)">
<path d="M21.5178 20.1158C19.3493 19.246 17.1846 18.3663 15.0159 17.497C14.8625 17.4355 14.8172 17.3569 14.8226 17.1973C14.8338 16.8648 14.8254 17.596 14.8264 17.2632C14.8266 17.1936 14.8326 17.1241 14.8368 17.035C15.2737 17.0852 15.4789 16.8137 15.6583 16.4798C15.8698 16.0859 16.1157 15.7112 16.3253 15.3163C16.4005 15.1745 16.4624 14.9924 16.446 14.8381C16.368 14.1027 16.5707 13.473 16.9774 12.8639C17.4473 12.16 17.8447 11.4055 18.2782 10.6758C18.3739 10.5147 18.4217 10.3516 18.4168 10.1601C18.4063 9.74266 18.4137 9.32472 18.4137 8.90697V8.67878C18.7232 8.67878 19.009 8.67974 19.2947 8.67857C19.7958 8.67652 20.0466 8.41982 20.0473 7.90693C20.0483 7.22156 20.035 6.53587 20.0523 5.85095C20.0625 5.44289 19.92 5.15909 19.5488 5.00281H9.44776C9.1619 5.13231 8.95115 5.32261 8.95029 5.67187C8.94838 6.44874 8.9457 7.22563 8.95113 8.00248C8.95385 8.39308 9.21857 8.66064 9.60257 8.67693C9.74261 8.68287 9.88309 8.67863 10.0234 8.67876C10.205 8.67893 10.3866 8.6788 10.5829 8.6788C10.5829 9.21238 10.5758 9.71426 10.5876 10.2157C10.5909 10.3521 10.6239 10.5033 10.69 10.62C11.1248 11.3869 11.5728 12.146 12.0158 12.9081C12.1914 13.2101 12.4329 13.4944 12.5203 13.8215C12.608 14.1497 12.5295 14.5218 12.5475 14.8734C12.5554 15.0296 12.5939 15.1982 12.6665 15.3345C12.8705 15.7177 13.1057 16.0835 13.3168 16.463C13.5043 16.8002 13.705 17.1052 14.1704 17.0449C14.1704 17.481 14.1635 16.8265 14.174 17.236C14.1778 17.3873 14.1214 17.4477 13.9891 17.5006C11.7842 18.3836 9.58156 19.2723 7.37856 20.1602C7.13214 20.2595 7.00419 20.4277 7.00282 20.6482C7.00143 20.8746 7.11979 21.0347 7.37065 21.1383C7.80146 21.3163 8.23352 21.4911 8.66427 21.6693C10.4639 22.4137 12.2634 23.1585 14.0626 23.904C14.3274 24.0137 14.592 24.0343 14.8622 23.9251C15.0042 23.8678 15.1501 23.8207 15.2916 23.7622C17.3684 22.9025 19.4441 22.0396 21.5226 21.1841C21.7409 21.0943 21.9153 20.9772 21.9976 20.7443V20.5484C21.9111 20.3186 21.7372 20.2038 21.5179 20.1158L21.5178 20.1158ZM9.61535 8.0019V5.68418H10.2526C10.4699 5.68056 10.6872 5.67696 10.9046 5.67334H11.5573C11.7745 5.67183 11.9917 5.6703 12.209 5.66878H12.8625C13.0804 5.67347 13.2983 5.67813 13.5161 5.68281H14.1706C14.389 5.68271 14.6074 5.6826 14.8258 5.68249H15.4804C15.6982 5.68266 15.916 5.68281 16.1338 5.68298H16.787C17.0045 5.68337 17.222 5.68373 17.4395 5.68411H18.0919C18.3092 5.68245 18.5266 5.68079 18.7439 5.67913H19.381V8.0019H9.61535ZM11.2509 8.69249H17.7494V10.0172H17.5509C16.4674 10.0172 15.3838 10.017 14.3002 10.0175C14.2385 10.0176 14.1744 10.013 14.1154 10.027H12.5893C12.5629 10.022 12.535 10.0191 12.5054 10.0188C12.092 10.0139 11.6786 10.0174 11.2509 10.0174V8.69249ZM13.0069 13.2677C12.502 12.4233 12.0064 11.573 11.4847 10.6831C11.6959 10.6831 11.8752 10.6832 12.0545 10.6831C12.0972 10.6831 12.14 10.6835 12.1828 10.6838V10.6869H14.7626V10.6829C15.5989 10.6831 16.4351 10.6832 17.2714 10.6832H17.5001C17.4593 10.7611 17.4353 10.8118 17.4071 10.86C16.9489 11.6428 16.4878 12.4239 16.0343 13.2095C15.9703 13.3202 15.9005 13.3572 15.7769 13.3564C14.9228 13.3508 14.0687 13.3554 13.2146 13.3499C13.1435 13.3494 13.0382 13.32 13.0069 13.2677V13.2677ZM14.1621 16.364C14.0908 16.3588 13.9982 16.3016 13.9599 16.2394C13.7358 15.8758 13.517 15.5081 13.314 15.1318C13.2472 15.008 13.2116 14.8566 13.1994 14.7144C13.1806 14.496 13.1945 14.2746 13.1945 14.0438H15.8026C15.7617 14.4415 15.9036 14.8461 15.6417 15.2255C15.4184 15.5492 15.2432 15.9074 15.0346 16.2425C14.9962 16.3043 14.9022 16.3591 14.8303 16.3641C14.6084 16.3798 14.384 16.38 14.1621 16.364L14.1621 16.364ZM10.9058 21.8815C9.94719 21.4936 8.99155 21.0978 8.03541 20.7033C8.01286 20.694 7.99262 20.6788 7.93957 20.6479C10.0217 19.8098 12.0755 18.983 14.152 18.1472C14.1594 18.2201 14.1695 18.2741 14.1696 18.3281C14.1708 18.9743 14.167 19.6205 14.1733 20.2667C14.1746 20.3964 14.1355 20.462 14.0178 20.5166C13.0556 20.9634 12.0975 21.4194 11.1356 21.8666C11.0693 21.8974 10.9712 21.908 10.9058 21.8815ZM20.8565 20.7468C18.8567 21.5758 16.8558 22.4019 14.858 23.2359C14.6111 23.3389 14.3872 23.3434 14.1406 23.2375C13.4422 22.9379 12.7377 22.6531 12.0357 22.3623C11.9841 22.3409 11.9332 22.3178 11.8546 22.2836C11.9315 22.2429 11.985 22.2123 12.0403 22.1857C12.8644 21.7898 13.686 21.3884 14.5147 21.0028C14.7461 20.8951 14.8334 20.7409 14.8296 20.486C14.819 19.7876 14.8259 19.0889 14.826 18.3904V18.1401C16.9115 18.9795 18.9689 19.8075 21.0645 20.6509C20.975 20.6923 20.9167 20.7219 20.8565 20.7468Z" fill="white"/>
<path d="M14.498 24C14.357 24 14.2123 23.9688 14.0614 23.9063C12.383 23.2108 10.6172 22.4799 8.6631 21.6716C8.44184 21.5801 8.21654 21.488 7.99863 21.3989C7.79233 21.3145 7.57899 21.2272 7.36947 21.1407C7.11947 21.0374 6.99862 20.8763 7.00001 20.6481C7.00139 20.4261 7.13187 20.2565 7.37739 20.1575L8.19986 19.826C10.0964 19.0616 12.0575 18.2711 13.988 17.498C14.1099 17.4492 14.1752 17.393 14.1711 17.2359C14.1637 16.9442 14.165 17.7203 14.1664 17.4151C14.167 17.2957 14.1676 17.1722 14.1676 17.0478C14.128 17.0528 14.0903 17.0552 14.0544 17.0552C13.6762 17.0553 13.4939 16.7871 13.3143 16.4642C13.222 16.2983 13.1235 16.1322 13.0282 15.9717C12.9056 15.765 12.7788 15.5513 12.664 15.3356C12.5957 15.2074 12.5533 15.0433 12.5447 14.8734C12.538 14.7439 12.5446 14.6097 12.5509 14.4799C12.5618 14.2583 12.573 14.0291 12.5176 13.8221C12.4564 13.5932 12.3173 13.3817 12.1826 13.1771C12.1252 13.0899 12.0659 12.9997 12.0134 12.9093C11.8901 12.6973 11.7644 12.4819 11.6429 12.2737C11.3275 11.7334 11.0014 11.1747 10.6876 10.6212C10.6258 10.5123 10.5884 10.3644 10.5848 10.2156C10.5763 9.85298 10.5776 9.49459 10.5791 9.11518C10.5796 8.97406 10.5801 8.82814 10.5801 8.68134H10.4061C10.2752 8.68138 10.1492 8.68142 10.0232 8.68129C9.98087 8.68125 9.93833 8.68161 9.89696 8.68195C9.80035 8.68276 9.7004 8.68361 9.60228 8.67944C9.21385 8.66299 8.95106 8.39087 8.94836 8.00235C8.94341 7.29378 8.94526 6.57332 8.94703 5.87656L8.94755 5.67172C8.9483 5.36749 9.10685 5.15411 9.44656 5.00023L9.44762 5H19.5492L19.5497 5.00021C19.9051 5.14983 20.0656 5.42013 20.0548 5.85089C20.043 6.31826 20.0455 6.79385 20.0479 7.25378C20.049 7.46781 20.0501 7.68915 20.0498 7.90681C20.0494 8.16274 19.9857 8.35762 19.8604 8.48608C19.7351 8.61447 19.5447 8.68008 19.2946 8.6811C19.0991 8.68189 18.9054 8.6817 18.7004 8.68151C18.6075 8.68142 18.513 8.68132 18.4162 8.68132V8.90685C18.4162 9.02807 18.4156 9.15133 18.415 9.27055C18.4135 9.56214 18.4119 9.86365 18.4194 10.1599C18.424 10.3452 18.3799 10.5096 18.2803 10.6771C18.1367 10.9188 17.9947 11.1674 17.8574 11.4078C17.5802 11.8929 17.2937 12.3945 16.9794 12.8652C16.5437 13.5179 16.375 14.1447 16.4485 14.8377C16.4626 14.9709 16.4185 15.1458 16.3275 15.3174C16.2197 15.5206 16.1004 15.7217 15.9849 15.9161C15.8759 16.0998 15.7632 16.2897 15.6605 16.481C15.5814 16.6282 15.4822 16.7935 15.3457 16.9034C15.2055 17.0163 15.0398 17.0602 14.8392 17.0378C14.8378 17.0663 14.8363 17.0926 14.8348 17.118C14.8317 17.1709 14.8291 17.2166 14.8289 17.263C14.8286 17.3707 14.8293 17.4803 14.8299 17.5863C14.8313 17.8077 14.8327 16.9723 14.8251 17.1972C14.8196 17.3597 14.8679 17.4347 15.0167 17.4943C16.1269 17.9393 17.2545 18.3945 18.345 18.8348C19.3849 19.2545 20.4602 19.6886 21.5187 20.1132C21.6432 20.1631 21.7355 20.2151 21.809 20.2767C21.8965 20.3499 21.9589 20.4385 21.9999 20.5473L22.0001 20.5483L21.9999 20.7451C21.9106 20.9979 21.7089 21.1101 21.5234 21.1864C20.0736 21.7832 18.6009 22.3935 17.1767 22.9838C16.5591 23.2398 15.9206 23.5045 15.2924 23.7645C15.2177 23.7954 15.1406 23.8235 15.0659 23.8508C14.9991 23.8751 14.9301 23.9003 14.863 23.9274C14.7433 23.9758 14.6221 24 14.498 24L14.498 24ZM14.1728 17.0417V17.0448C14.1728 17.1702 14.1722 17.2947 14.1716 17.4152C14.1702 17.7203 14.1689 16.9441 14.1763 17.2358C14.1804 17.396 14.114 17.4533 13.9899 17.503C12.0594 18.2761 10.0983 19.0666 8.20177 19.831L7.37931 20.1625C7.13593 20.2606 7.00657 20.4285 7.00521 20.6481C7.00382 20.8739 7.12361 21.0334 7.37142 21.1357C7.58093 21.2223 7.79426 21.3095 8.00057 21.3939C8.21848 21.483 8.44378 21.5752 8.66506 21.6667C10.6191 22.4749 12.3849 23.2059 14.0634 23.9014C14.3457 24.0183 14.6066 24.0253 14.8611 23.9225C14.9282 23.8954 14.9973 23.8702 15.0641 23.8458C15.1387 23.8186 15.2158 23.7904 15.2904 23.7595C15.9186 23.4995 16.5571 23.2349 17.1747 22.9789C18.5989 22.3886 20.0715 21.7783 21.5214 21.1815C21.8497 21.0464 21.945 20.8844 21.9948 20.7437V20.5488C21.9013 20.3008 21.7007 20.192 21.5167 20.1181C20.4582 19.6936 19.3829 19.2595 18.343 18.8397C17.2525 18.3995 16.1249 17.9443 15.0148 17.4993C14.8634 17.4387 14.8142 17.3624 14.8198 17.1971C14.8274 16.9722 14.826 17.8077 14.8247 17.5864C14.824 17.4804 14.8233 17.3708 14.8237 17.263C14.8238 17.2165 14.8265 17.1708 14.8296 17.1177C14.8311 17.0915 14.8327 17.0643 14.8341 17.0347L14.8342 17.0319L14.837 17.0322C15.0373 17.0553 15.2027 17.0118 15.3424 16.8992C15.4781 16.7899 15.577 16.6252 15.6558 16.4784C15.7586 16.287 15.8714 16.0971 15.9804 15.9134C16.0958 15.719 16.2151 15.518 16.3228 15.3149C16.4134 15.1442 16.4572 14.9705 16.4432 14.8383C16.3696 14.1439 16.5386 13.5161 16.9751 12.8623C17.2892 12.3917 17.5757 11.8902 17.8528 11.4052C17.9901 11.1648 18.1322 10.9162 18.2758 10.6743C18.3748 10.5078 18.4187 10.3443 18.4141 10.1601C18.4066 9.86374 18.4082 9.56218 18.4097 9.27057C18.4103 9.15137 18.4109 9.02811 18.4109 8.90689V8.67604H18.4135C18.5113 8.67604 18.6066 8.67614 18.7004 8.67623C18.9054 8.67642 19.099 8.67663 19.2945 8.67582C19.5432 8.67482 19.7324 8.60972 19.8566 8.48235C19.981 8.35494 20.0442 8.16129 20.0445 7.90683C20.0449 7.6892 20.0437 7.46788 20.0426 7.25384C20.0402 6.79388 20.0377 6.31824 20.0495 5.85078C20.0603 5.42273 19.901 5.15409 19.5481 5.00536H9.44814C9.29002 5.07707 9.17418 5.15922 9.09397 5.25653C8.99933 5.37136 8.95315 5.50718 8.95273 5.67177L8.95221 5.87661C8.95044 6.57335 8.94861 7.2938 8.95354 8.00235C8.95622 8.38785 9.21702 8.65781 9.60249 8.67416C9.70046 8.67831 9.80037 8.67748 9.8969 8.67667C9.9383 8.67633 9.98118 8.67599 10.0231 8.67601C10.1491 8.67612 10.2751 8.6761 10.4061 8.67608H10.5853V8.67872C10.5853 8.82644 10.5848 8.97325 10.5842 9.11524C10.5828 9.49463 10.5814 9.85296 10.59 10.2155C10.5935 10.3635 10.6307 10.5104 10.692 10.6185C11.0059 11.1721 11.332 11.7307 11.6473 12.271C11.7689 12.4792 11.8946 12.6946 12.0178 12.9066C12.0703 12.9968 12.1296 13.087 12.187 13.1741C12.3218 13.379 12.4612 13.5909 12.5226 13.8207C12.5782 14.0285 12.567 14.2582 12.5561 14.4802C12.5498 14.6098 12.5432 14.7439 12.5499 14.8731C12.5585 15.0422 12.6006 15.2056 12.6685 15.3331C12.7833 15.5487 12.9101 15.7623 13.0327 15.9689C13.128 16.1295 13.2265 16.2956 13.3188 16.4616C13.5149 16.8142 13.7142 17.1012 14.1698 17.0422L14.1728 17.0418V17.0417ZM14.4937 23.318C14.3766 23.318 14.2608 23.2919 14.1394 23.2399C13.6436 23.0271 13.1363 22.8184 12.6457 22.6166C12.4453 22.5342 12.2381 22.4489 12.0345 22.3646C12.0007 22.3506 11.9678 22.3362 11.9261 22.3178C11.9044 22.3082 11.8806 22.2977 11.8534 22.2859L11.8483 22.2837L11.8532 22.2811C11.8794 22.2673 11.9028 22.2546 11.9246 22.2428C11.9664 22.2202 12.0025 22.2007 12.039 22.1831C12.2511 22.0813 12.4664 21.9774 12.6748 21.8768C13.2761 21.5867 13.898 21.2867 14.5134 21.0002C14.7399 20.8948 14.8307 20.7458 14.8268 20.4859C14.8192 19.9855 14.8207 19.4766 14.8221 18.9845C14.8226 18.7898 14.8232 18.5884 14.8232 18.3903V18.1361L14.8268 18.1375L21.071 20.6506L21.0654 20.6532C21.0345 20.6675 21.0073 20.6804 20.9825 20.6922C20.9346 20.7149 20.8968 20.7328 20.8573 20.7492C20.3299 20.9678 19.8024 21.1862 19.275 21.4046C17.827 22.0042 16.3297 22.6241 14.8588 23.2382C14.7314 23.2914 14.6119 23.3179 14.4937 23.3179V23.318ZM11.8605 22.2833C11.8856 22.2942 11.9079 22.304 11.9282 22.3129C11.9699 22.3313 12.0027 22.3457 12.0364 22.3597C12.24 22.444 12.4472 22.5293 12.6476 22.6117C13.1382 22.8135 13.6455 23.0222 14.1414 23.235C14.384 23.339 14.6047 23.3385 14.8568 23.2333C16.3277 22.6192 17.825 21.9993 19.273 21.3997C19.8005 21.1813 20.328 20.9629 20.8554 20.7443C20.8947 20.728 20.9325 20.7101 20.9803 20.6874C21.0036 20.6763 21.029 20.6643 21.0576 20.651L14.8284 18.1439V18.3903C14.8284 18.5884 14.8278 18.7898 14.8273 18.9846C14.8259 19.4766 14.8244 19.9855 14.832 20.4858C14.836 20.7482 14.7443 20.8986 14.5156 21.0051C13.9002 21.2915 13.2784 21.5915 12.677 21.8816C12.4687 21.9821 12.2533 22.0861 12.0413 22.1879C12.0048 22.2054 11.9687 22.2249 11.927 22.2475C11.9066 22.2586 11.8847 22.2704 11.8605 22.2832L11.8605 22.2833ZM10.9935 21.8992C10.9621 21.8992 10.9313 21.8946 10.9047 21.8839C10.0868 21.5529 9.2574 21.2105 8.45532 20.8794C8.31497 20.8215 8.17462 20.7636 8.03427 20.7057C8.02 20.6998 8.00639 20.6914 7.9858 20.6788C7.97342 20.6711 7.958 20.6617 7.93811 20.65L7.93339 20.6473L7.93844 20.6453L14.1541 18.1433L14.1544 18.1468C14.1569 18.1714 14.1597 18.1935 14.1623 18.2149C14.1675 18.2563 14.172 18.292 14.172 18.328C14.1724 18.5398 14.1723 18.7552 14.1721 18.9635C14.1718 19.3906 14.1715 19.8323 14.1757 20.2666C14.177 20.3985 14.1359 20.4646 14.0186 20.519C13.5234 20.7489 13.0211 20.9851 12.5352 21.2136C12.0771 21.4291 11.6034 21.6519 11.1365 21.869C11.0979 21.8869 11.0449 21.8993 10.9935 21.8993L10.9935 21.8992ZM7.94539 20.6482C7.9631 20.6586 7.97708 20.6672 7.98848 20.6742C8.00958 20.6872 8.02231 20.695 8.03621 20.7008C8.17656 20.7587 8.31691 20.8166 8.45726 20.8745C9.25933 21.2056 10.0887 21.5479 10.9066 21.8789C10.9754 21.9067 11.0732 21.8925 11.1344 21.8641C11.6012 21.647 12.075 21.4242 12.5331 21.2087C13.0189 20.9803 13.5213 20.744 14.0165 20.5141C14.1315 20.4607 14.1718 20.3959 14.1705 20.2666C14.1663 19.8322 14.1666 19.3906 14.1669 18.9635C14.1671 18.7552 14.1672 18.5398 14.1668 18.3279C14.1668 18.2924 14.1623 18.2567 14.1572 18.2155C14.1546 18.1951 14.152 18.1741 14.1496 18.1508L7.94539 20.6482ZM14.4958 16.3784C14.3838 16.3784 14.2721 16.3745 14.1617 16.3665C14.0898 16.3613 13.9963 16.3037 13.9575 16.2407C13.693 15.8114 13.4877 15.4595 13.3116 15.133C13.2339 14.989 13.2062 14.8259 13.1966 14.7145C13.1835 14.5616 13.1863 14.41 13.1892 14.2495C13.1904 14.1824 13.1917 14.1131 13.1917 14.0437V14.041H15.8053L15.805 14.044C15.7923 14.1678 15.7974 14.2943 15.8023 14.4167C15.8132 14.6863 15.8244 14.965 15.6437 15.2269C15.5113 15.4188 15.3939 15.6263 15.2803 15.827C15.2022 15.9648 15.1216 16.1074 15.0366 16.2438C14.9984 16.3052 14.9039 16.3614 14.8303 16.3666C14.7189 16.3745 14.6072 16.3784 14.4959 16.3784H14.4958ZM13.1969 14.0463C13.1969 14.1149 13.1956 14.1834 13.1944 14.2496C13.1915 14.4099 13.1887 14.5614 13.2018 14.714C13.2153 14.8708 13.2559 15.0187 13.3161 15.1304C13.4922 15.4568 13.6974 15.8087 13.9619 16.2378C14 16.2996 14.0917 16.3561 14.1621 16.3612C14.3819 16.377 14.6067 16.3771 14.83 16.3613C14.9022 16.3563 14.9948 16.3011 15.0322 16.2409C15.1171 16.1046 15.1978 15.9621 15.2757 15.8243C15.3894 15.6235 15.5069 15.4159 15.6395 15.2238C15.8191 14.9635 15.8079 14.6856 15.7971 14.4169C15.7922 14.2953 15.7871 14.1696 15.7995 14.0463H13.1969ZM15.7805 13.3589C15.7793 13.3589 15.778 13.3589 15.7767 13.3589C15.3479 13.3561 14.9118 13.3559 14.4902 13.3556C14.072 13.3554 13.6397 13.3552 13.2144 13.3524C13.1372 13.3519 13.035 13.3198 13.0045 13.2689C12.5936 12.5817 12.1941 11.8996 11.7711 11.1774C11.6756 11.0143 11.5794 10.85 11.4823 10.6844L11.48 10.6804H11.6734C11.8073 10.6804 11.9308 10.6804 12.0543 10.6804C12.0982 10.6804 12.1416 10.6807 12.1826 10.6811H12.1852V10.6842H14.7598V10.6801H14.7624C15.5987 10.6804 16.435 10.6804 17.2712 10.6804H17.5043L17.5022 10.6843C17.488 10.7114 17.4759 10.7353 17.4649 10.7568C17.4441 10.7976 17.4276 10.8298 17.4092 10.8612C17.2818 11.0788 17.1543 11.2963 17.0267 11.5137C16.7008 12.0692 16.3639 12.6435 16.0363 13.2107C15.9741 13.3185 15.9045 13.359 15.7805 13.359L15.7805 13.3589ZM13.009 13.2661C13.0385 13.3155 13.1386 13.3466 13.2144 13.3471C13.6397 13.3498 14.0721 13.3501 14.4902 13.3503C14.9118 13.3505 15.3479 13.3508 15.7767 13.3536C15.9024 13.3545 15.9693 13.3163 16.0319 13.208C16.3594 12.6407 16.6964 12.0664 17.0222 11.511C17.1498 11.2935 17.2774 11.076 17.4048 10.8585C17.4231 10.8271 17.4395 10.795 17.4603 10.7543C17.4708 10.7338 17.4823 10.7112 17.4956 10.6857H17.2713C16.4359 10.6857 15.6005 10.6857 14.7651 10.6854V10.6894H12.18V10.6863C12.1398 10.686 12.0972 10.6857 12.0543 10.6857C11.9308 10.6857 11.8073 10.6857 11.6734 10.6857H11.4892C11.5855 10.8499 11.6809 11.0129 11.7756 11.1746C12.1986 11.8968 12.598 12.5789 13.009 13.2661L13.009 13.2661ZM12.5892 10.0295C12.5615 10.0244 12.5334 10.0216 12.5052 10.0213C12.214 10.0179 11.9287 10.0186 11.6265 10.0193C11.5039 10.0196 11.3771 10.0199 11.2507 10.0199H11.2481V8.68968H17.7519V10.0197H16.9681C16.0937 10.0197 15.1894 10.0196 14.3001 10.0201H14.2996C14.2874 10.0201 14.2753 10.0199 14.263 10.0197C14.2138 10.019 14.1628 10.0183 14.1159 10.0294L12.5892 10.0295V10.0295ZM11.9938 10.0134C12.1653 10.0134 12.3343 10.014 12.5052 10.016C12.5337 10.0163 12.5621 10.0191 12.5896 10.0242L14.1153 10.0242C14.1623 10.013 14.2135 10.0137 14.2631 10.0144C14.2753 10.0146 14.2875 10.0147 14.2996 10.0147H14.3001C15.1894 10.0143 16.0937 10.0143 16.9681 10.0144H17.7467V8.69502H11.2533V10.0146C11.3789 10.0146 11.5048 10.0143 11.6265 10.014C11.7513 10.0137 11.8732 10.0134 11.9938 10.0134ZM19.3834 8.00444H9.61258V5.68139H10.2524L10.9044 5.67055H11.5571L12.2088 5.666H12.8623L13.516 5.68003L15.4803 5.67971L16.1336 5.6802H16.7869L17.4394 5.68133H18.0917L18.7437 5.67636H19.3834V8.00444ZM9.61778 7.99912H19.3782V5.68167H18.7438L18.0918 5.68663H17.4394L16.7869 5.6855H16.1336L15.4803 5.68501L13.516 5.68533L12.8623 5.6713H12.2088L11.5571 5.67585H10.9044L10.2525 5.68669H9.6178V7.99907L9.61778 7.99912Z" fill="white"/>
</g>
<defs>
<clipPath id="clip0_351_989">
<rect width="15" height="19" fill="white" transform="translate(7 5)"/>
</clipPath>
</defs>
</svg>
