<svg width="16" height="18" viewBox="0 0 16 18" fill="none" xmlns="http://www.w3.org/2000/svg">
<g clip-path="url(#clip0_180_2405)">
<path d="M4.62012 12.7368C4.36523 12.7368 4.15723 12.5273 4.15723 12.2695C4.15723 12.0117 4.36377 11.8022 4.62012 11.8022H7.62305C7.87793 11.8022 8.08594 12.0117 8.08594 12.2695C8.08594 12.5273 7.87939 12.7368 7.62305 12.7368H4.62012ZM4.62012 6.19189C4.36523 6.19189 4.15869 5.98535 4.15869 5.73047C4.15869 5.47559 4.36523 5.26904 4.62012 5.26904H10.7153C10.9702 5.26904 11.1768 5.47559 11.1768 5.73047C11.1768 5.98535 10.9702 6.19189 10.7153 6.19189H4.62012ZM8.32764 17.0771C8.58252 17.0771 8.78906 17.2837 8.78906 17.5386C8.78906 17.7935 8.58252 18 8.32764 18H1.07373C0.777832 18 0.509766 17.8799 0.314941 17.6851C0.120117 17.4902 0 17.2222 0 16.9263V1.07373C0 0.777832 0.120117 0.509766 0.314941 0.314941C0.509766 0.120117 0.777832 0 1.07373 0H14.2603C14.5562 0 14.8242 0.120117 15.019 0.314941C15.2139 0.509766 15.334 0.777832 15.334 1.07373V10.6348C15.334 10.8896 15.1274 11.0962 14.8726 11.0962C14.6177 11.0962 14.4111 10.8896 14.4111 10.6348V1.07373C14.4111 1.03271 14.3936 0.994629 14.3672 0.966797C14.3394 0.938965 14.3013 0.922852 14.2603 0.922852H1.07373C1.03271 0.922852 0.994629 0.94043 0.966797 0.966797C0.94043 0.996094 0.922852 1.03271 0.922852 1.07373V16.9248C0.922852 16.9658 0.94043 17.0039 0.966797 17.0317C0.994629 17.0596 1.03271 17.0757 1.07373 17.0757H8.32764V17.0771ZM12.2095 12.2607C12.2095 12.0073 12.416 11.8008 12.6694 11.8008C12.9229 11.8008 13.1294 12.0073 13.1294 12.2607L13.1235 14.3643L15.2241 14.3701C15.4775 14.3701 15.6841 14.5767 15.6841 14.8301C15.6841 15.0835 15.4775 15.29 15.2241 15.29L13.1221 15.2842L13.1162 17.3848C13.1162 17.6382 12.9097 17.8447 12.6562 17.8447C12.4028 17.8447 12.1963 17.6382 12.1963 17.3848L12.2021 15.2827L10.1016 15.2769C9.84814 15.2769 9.6416 15.0703 9.6416 14.8169C9.6416 14.5635 9.84814 14.3569 10.1016 14.3569L12.2051 14.3628L12.2095 12.2607ZM4.62012 9.46142C4.36523 9.46142 4.15869 9.25488 4.15869 9C4.15869 8.74512 4.36523 8.53857 4.62012 8.53857H10.7153C10.9702 8.53857 11.1768 8.74512 11.1768 9C11.1768 9.25488 10.9702 9.46142 10.7153 9.46142H4.62012Z" fill="white"/>
</g>
<defs>
<clipPath id="clip0_180_2405">
<rect width="15.6841" height="18" fill="white"/>
</clipPath>
</defs>
</svg>
