<svg width="36" height="31" viewBox="0 0 36 31" fill="none" xmlns="http://www.w3.org/2000/svg">
<path d="M35.036 18.2213C33.9496 18.537 32.863 18.8514 31.7773 19.1689C31.3726 19.2871 30.974 19.4317 30.5645 19.527C30.2659 19.5965 30.2347 19.6769 30.428 19.9299C31.7053 21.6036 32.9658 23.2913 34.2457 24.9631C34.4296 25.2034 34.4189 25.3216 34.1809 25.5012C32.8383 26.5146 31.5026 27.5376 30.175 28.5722C29.9425 28.7534 29.8233 28.7374 29.6448 28.4988C28.3965 26.8306 27.1302 25.177 25.8815 23.5092C25.7043 23.2723 25.629 23.3092 25.4912 23.5341C24.7913 24.677 24.0811 25.8132 23.3714 26.9497C23.3015 27.0613 23.2587 27.2521 23.1216 27.2427C22.9713 27.2324 22.9806 27.032 22.945 26.9097C21.5379 22.0821 20.1348 17.2533 18.7312 12.4247C18.4154 11.3383 18.0922 10.2539 17.7894 9.16359C17.7107 8.8802 17.5721 8.78537 17.2931 8.79214C16.5956 8.8094 15.8974 8.79499 15.1997 8.79914C14.9691 8.80045 14.7798 8.78734 14.795 8.46003C14.8062 8.21727 14.6608 8.31953 14.5551 8.37831C13.3292 9.06046 12.2038 9.88617 11.1854 10.8709C8.6621 13.3111 7.19508 16.3561 6.41484 19.7931C6.10531 21.1564 5.93483 22.5399 5.85993 23.9392C5.83419 24.4201 5.82132 24.9003 5.8057 25.381C5.79726 25.6413 5.89749 25.7245 6.13738 25.7167C6.52476 25.7038 6.91299 25.7226 7.30037 25.7108C7.55187 25.7031 7.66074 25.7966 7.65947 26.0684C7.65272 27.5713 7.6523 29.0741 7.65947 30.577C7.66095 30.859 7.5544 30.9637 7.28602 30.9624C5.846 30.9558 4.40578 30.9561 2.96576 30.9624C2.70202 30.9635 2.58555 30.8693 2.58703 30.5824C2.59442 29.0796 2.59378 27.5767 2.58703 26.0739C2.58576 25.8071 2.6843 25.6994 2.94107 25.7112C3.21747 25.7239 3.49556 25.7001 3.77154 25.7171C4.03802 25.7335 4.11376 25.6168 4.11271 25.354C4.10638 23.8151 4.24458 22.2878 4.50452 20.7731C5.08095 17.4139 6.2471 14.311 8.27494 11.5922C9.09 10.4995 10.019 9.51691 11.0611 8.65209C11.1111 8.61057 11.1611 8.56862 11.1921 8.46767C10.8235 8.5483 10.4547 8.62717 10.0865 8.70999C8.41103 9.08668 6.7366 9.46818 5.05964 9.83744C4.82481 9.88923 4.67774 9.97794 4.57225 10.2244C4.21019 11.0702 3.45885 11.472 2.53745 11.3551C1.82725 11.2651 1.16917 10.609 1.00438 9.82674C0.834748 9.02201 1.20989 8.14757 1.903 7.73286C2.6286 7.29848 3.47763 7.3861 4.11946 7.98217C4.27897 8.13053 4.42666 8.16461 4.63027 8.11851C7.90401 7.37539 11.178 6.63403 14.4551 5.90686C14.7353 5.84459 14.8142 5.72179 14.8055 5.44539C14.7891 4.92973 14.8095 4.41298 14.7977 3.89689C14.7918 3.64365 14.8882 3.5486 15.1281 3.54947C16.5903 3.5545 18.0527 3.55384 19.5149 3.55013C19.7396 3.54947 19.8227 3.64649 19.8343 3.87941C19.847 4.13352 19.7005 4.47219 19.9128 4.62055C20.0923 4.74597 20.3768 4.56484 20.6131 4.51196C23.5967 3.84357 26.5797 3.17147 29.564 2.50548C29.7863 2.45588 29.9216 2.3569 30.0233 2.12835C30.4151 1.24802 31.274 0.811239 32.1554 1.00964C32.9907 1.19776 33.6325 1.97431 33.6342 2.8931C33.6357 3.67008 33.2983 4.28953 32.613 4.65573C31.8889 5.04291 31.1848 4.95617 30.5634 4.43309C30.3142 4.22333 30.103 4.19645 29.8102 4.26309C26.6232 4.98829 23.4349 5.70672 20.2434 6.4105C19.9181 6.48217 19.832 6.62005 19.8147 6.95522C19.7913 7.40446 19.9558 7.65027 20.3101 7.89455C25.1034 11.2013 29.8855 14.5251 34.671 17.8441C34.7906 17.9272 34.9143 18.0036 35.036 18.0832V18.2208V18.2213ZM31.1074 17.5175C27.2802 14.8618 23.5345 12.2628 19.7056 9.60583C21.0353 14.1764 22.3348 18.6438 23.6507 23.167C23.7425 23.0462 23.794 22.9885 23.8345 22.9234C24.3223 22.144 24.8095 21.3642 25.2952 20.5832C25.5452 20.181 25.5418 20.1814 25.8214 20.5513C27.2139 22.3933 28.6101 24.2322 29.9969 26.0787C30.1465 26.278 30.2539 26.3055 30.4499 26.1456C30.8848 25.7909 31.3287 25.447 31.7857 25.1239C32.0039 24.9694 31.9845 24.8586 31.8361 24.6661C31.1937 23.8328 30.5645 22.9885 29.9298 22.1486C29.1177 21.074 28.3084 19.997 27.4893 18.9281C27.3228 18.7107 27.3741 18.62 27.6104 18.5584C27.857 18.4942 28.0997 18.414 28.3442 18.341C29.2346 18.0755 30.1252 17.81 31.1074 17.5173V17.5175ZM5.90909 28.3585C5.90909 27.5239 5.90909 27.5186 5.1012 27.5252C4.21546 27.5324 4.34775 27.4035 4.33995 28.336C4.33319 29.1508 4.33847 29.1508 5.12926 29.1508C5.64915 29.1508 5.90909 28.8866 5.90909 28.3583V28.3585ZM16.5104 6.14568C16.5104 6.35194 16.5019 6.55864 16.5122 6.76447C16.5287 7.08697 16.7735 6.97641 16.9395 6.98122C17.176 6.98821 17.0948 6.81276 17.0623 6.69061C16.9769 6.37073 16.879 6.05435 16.7895 5.73556C16.7692 5.66367 16.714 5.56906 16.8051 5.52427C16.8467 5.50373 16.9309 5.54874 16.9834 5.58392C17.2714 5.77686 17.5571 5.97351 17.8406 6.17343C17.9987 6.28487 18.0675 6.26257 18.0854 6.05019C18.1405 5.40125 18.112 5.36214 17.495 5.36192C17.4176 5.36192 17.3402 5.36083 17.2625 5.36192C16.384 5.37525 16.5215 5.24087 16.5101 6.14568H16.5104Z" fill="white"/>
<path d="M19.2656 8.98096L23.5855 24.4389L25.2715 21.4201L30.329 27.5226L33.3143 25.2026L28.8539 18.6922L33.5953 17.7465L19.2656 8.98096Z" fill="white"/>
</svg>
