<svg width="28" height="28" viewBox="0 0 28 28" fill="none" xmlns="http://www.w3.org/2000/svg">
<g clip-path="url(#clip0_351_967)">
<path fill-rule="evenodd" clip-rule="evenodd" d="M12.6169 20.1007C13.0454 20.9673 14.0675 23.0336 14.0675 23.0336L15.3984 20.1007H12.6169ZM12.4595 15.5835V19.5335H15.5407V17.2942L12.4595 15.5835ZM15.5407 7.17589V6.0478C15.5407 5.2327 14.8476 4.56646 14.0005 4.56646H13.9997C13.1526 4.56646 12.4595 5.2327 12.4595 6.04699V7.17589H15.5407ZM15.5407 12.4165V7.74316H12.4595V10.7058L15.5407 12.4165ZM12.0159 11.1146L6.30545 7.94512L4.69746 10.6213L5.59144 11.1178L6.0761 10.3124C6.15729 10.1764 6.33726 10.1305 6.47872 10.2086C6.61935 10.2866 6.6679 10.4604 6.5867 10.5956L6.10204 11.401L7.22454 12.0246L7.7092 11.2184C7.79039 11.0832 7.97036 11.0365 8.11182 11.1146C8.25245 11.1926 8.301 11.3664 8.2198 11.5016L7.73514 12.3079L8.85764 12.9306L9.3423 12.1252C9.42349 11.9892 9.6043 11.9425 9.74492 12.0214C9.88555 12.0995 9.9341 12.2724 9.8529 12.4084L9.36908 13.2139L10.4916 13.8375L10.9754 13.0312C11.0566 12.896 11.2374 12.8494 11.378 12.9274C11.5186 13.0055 11.5672 13.1793 11.486 13.3145L11.0022 14.1207L12.1247 14.7435L12.6085 13.9372C12.6897 13.8021 12.8705 13.7554 13.0111 13.8342C13.1517 13.9123 13.2003 14.0853 13.1191 14.2213L12.6353 15.0267L13.7578 15.6495L14.2416 14.8441C14.3228 14.7089 14.5036 14.6622 14.6442 14.7403C14.7848 14.8183 14.8334 14.9921 14.7522 15.1273L14.2684 15.9335L15.3909 16.5563L15.8747 15.7501C15.9559 15.6149 16.1367 15.5682 16.2773 15.6463C16.4179 15.7251 16.4665 15.8981 16.3853 16.0341L15.9015 16.8396C15.9015 16.8396 15.9835 16.8854 15.9844 16.8854L17.024 17.4623L17.5078 16.6569C17.589 16.5209 17.7698 16.4751 17.9104 16.5531C18.0511 16.6312 18.0996 16.805 18.0184 16.9401L17.5346 17.7464L18.6571 18.3692L19.1409 17.5629C19.2221 17.4277 19.4029 17.3811 19.5435 17.4591C19.6842 17.5372 19.7327 17.711 19.6515 17.8462L19.1677 18.6524L20.2902 19.2752L20.774 18.4697C20.8552 18.3338 21.036 18.2879 21.1766 18.3659C21.3181 18.444 21.3658 18.617 21.2846 18.753L20.8008 19.5584L21.6948 20.0549L23.3028 17.3787C23.3028 17.3787 15.688 13.1527 15.6872 13.1519C15.6872 13.1519 12.0167 11.1154 12.0159 11.1146ZM11.8694 15.2568L4.14751 10.9706C4.00605 10.8925 3.95834 10.7195 4.03953 10.5835L5.94217 7.41648C6.02336 7.2805 6.20333 7.23383 6.34479 7.31268L11.8694 10.3791L11.8702 6.04699C11.8694 4.92131 12.8278 3.9992 14.0005 4C15.1716 4 16.1308 4.92131 16.13 6.0478V12.7432L23.8527 17.0294C23.9933 17.1075 24.0419 17.2805 23.9607 17.4165L22.058 20.5835C21.9769 20.7195 21.796 20.7662 21.6554 20.6873L16.1308 17.6217V19.8457C16.1308 19.8851 16.1225 19.9237 16.1057 19.9591L14.3496 23.8302C14.3035 23.9316 14.1997 23.9984 14.0842 24C13.9687 24.0016 13.8624 23.9388 13.813 23.8383L11.8978 19.968C11.8794 19.9294 11.8694 19.8883 11.8694 19.8457V15.2568Z" fill="white"/>
</g>
<defs>
<clipPath id="clip0_351_967">
<rect width="20" height="20" fill="white" transform="translate(4 4)"/>
</clipPath>
</defs>
</svg>
