<svg width="68" height="18" viewBox="0 0 68 18" fill="none" xmlns="http://www.w3.org/2000/svg">
<g clip-path="url(#clip0_406_23480)">
<path d="M56.4253 13.3413C56.4962 13.2025 56.4713 13.0937 56.4713 12.9896C56.4727 8.83069 56.4725 4.67173 56.4727 0.512769C56.4727 0.421921 56.4754 0.33128 56.4742 0.240432C56.4723 0.0781456 56.5434 0.00175109 56.7131 0.00216403C57.7762 0.00526111 58.8393 0.00546758 59.9026 0.00195756C60.0698 0.00133814 60.1488 0.0655508 60.1385 0.235684C60.1339 0.3096 60.1385 0.384137 60.1385 0.458467C60.1385 6.15234 60.1385 11.846 60.1385 17.5399C60.1385 17.6225 60.135 17.7051 60.1378 17.7874C60.1428 17.9338 60.0733 17.9978 59.9288 17.9951C59.7559 17.9918 59.5827 17.9953 59.4095 17.9953C58.1073 17.9953 56.8053 17.9923 55.503 17.9987C55.3103 17.9997 55.1833 17.9394 55.0711 17.7788C52.4553 14.0325 49.836 10.2888 47.213 6.54773C47.0779 6.35509 47.0216 6.16101 47.0225 5.92728C47.0287 4.09547 47.026 2.26344 47.026 0.431625C47.026 0.382072 47.0239 0.332519 47.027 0.283172C47.0313 0.219372 47.0093 0.130589 47.0806 0.106019C47.1715 0.0746356 47.2002 0.173742 47.2393 0.229696C48.1765 1.56701 49.1116 2.90578 50.0473 4.24413C52.1172 7.20452 54.1874 10.1651 56.2577 13.1251C56.3043 13.1916 56.3573 13.2537 56.4255 13.3413H56.4253Z" fill="white"/>
<path d="M15.4756 13.3643V13.0139C15.4756 8.8145 15.4756 4.61507 15.4756 0.415645C15.4756 0.140899 15.6101 0.00338927 15.8792 0.00311398C16.8598 0.00311398 17.8403 0.00249456 18.8209 0.00352692C19.1291 0.00393986 19.1413 0.0157087 19.1415 0.32459C19.1419 6.10807 19.1405 11.8916 19.1462 17.675C19.1464 17.9251 19.0687 18.0017 18.8205 18C17.3785 17.9903 15.9365 17.992 14.4945 17.9992C14.2993 18.0002 14.1787 17.9348 14.0676 17.7752C12.0393 14.867 10.0058 11.9622 7.9734 9.0569C7.3731 8.1988 6.77444 7.33947 6.16919 6.48509C6.06838 6.34283 6.02303 6.19933 6.02344 6.02631C6.02674 4.13688 6.0255 2.24767 6.0255 0.358245C6.0255 0.316951 6.02426 0.275657 6.02756 0.234569C6.03127 0.186667 6.02138 0.126378 6.0756 0.104079C6.14692 0.0747597 6.17826 0.139798 6.20939 0.18419C6.38028 0.426794 6.54747 0.672289 6.71775 0.915513C9.57188 4.99705 12.4262 9.07858 15.2816 13.1593C15.3273 13.2247 15.3583 13.3051 15.476 13.3643H15.4756Z" fill="white"/>
<path d="M30.6811 0.00310099C33.5484 0.00310099 36.4159 0.00310099 39.2832 0.00310099C39.5351 0.00310099 39.6613 0.132283 39.6617 0.390648C39.6619 1.36416 39.6625 2.33768 39.6613 3.31119C39.6609 3.63638 39.6551 3.64175 39.328 3.64175C34.7879 3.64217 30.2477 3.64175 25.7077 3.64196C25.4543 3.64196 25.3275 3.76632 25.3274 4.01505C25.3274 8.54442 25.3274 13.0736 25.3274 17.603C25.3274 17.8642 25.1952 17.995 24.9309 17.9953C23.9505 17.9955 22.9699 17.9909 21.9894 17.9988C21.7711 18.0004 21.6864 17.9385 21.6866 17.7043C21.6919 11.9045 21.6926 6.10475 21.6855 0.304963C21.6853 0.0313876 21.8055 -0.000409026 22.0294 3.91707e-06C24.9132 0.00475277 27.7972 0.00310099 30.6811 0.00310099Z" fill="white"/>
<path d="M4.55236 9.02492C4.55236 11.8874 4.55236 14.7502 4.55236 17.6127C4.55236 17.8672 4.42482 17.9947 4.16975 17.9951C2.89265 17.9953 1.61556 17.9957 0.338472 17.9947C0.0185297 17.9945 0.000800978 17.979 0.000800978 17.6608C-0.000229765 11.8862 -0.000229765 6.1116 0.000594829 0.336794C0.000594829 0.0196539 0.0191482 0.00375557 0.339503 0.0035491C1.63309 0.00272322 2.92667 0.00272322 4.22025 0.0035491C4.54287 0.0035491 4.55215 0.0124274 4.55215 0.33824C4.55277 3.2338 4.55256 6.12956 4.55256 9.02512L4.55236 9.02492Z" fill="white"/>
<path d="M40.9932 9.00012C40.9932 6.15349 40.9932 3.30686 40.9932 0.460237C40.9932 0.155897 41.1485 0.00365885 41.4591 0.0035212C42.7116 0.0035212 43.9642 0.00310826 45.2169 0.00393415C45.5422 0.00414062 45.5515 0.0130189 45.5515 0.336354C45.5519 6.11219 45.5519 11.8878 45.5515 17.6637C45.5515 17.988 45.5441 17.9953 45.2176 17.9955C43.9238 17.9963 42.63 17.9963 41.3362 17.9955C41.0109 17.9953 40.9942 17.9787 40.9942 17.6391C40.9934 14.7594 40.9938 11.8798 40.9936 9.00012H40.9932Z" fill="white"/>
<path d="M62.6867 8.99865C62.6867 6.12724 62.6867 3.25584 62.6867 0.384438C62.6867 0.130891 62.8151 0.0038416 63.0718 0.00329101C64.3491 0.00287807 65.6264 0.0026716 66.9037 0.00349748C67.2218 0.00370396 67.2443 0.0237317 67.2443 0.337156C67.2451 6.113 67.2451 11.8888 67.2443 17.6645C67.2443 17.976 67.2224 17.9948 66.9012 17.995C65.6074 17.9959 64.3137 17.9959 63.0199 17.995C62.6944 17.995 62.6869 17.9876 62.6869 17.6622C62.6863 14.7743 62.6867 11.8864 62.6865 8.99844L62.6867 8.99865Z" fill="white"/>
<path d="M32.8294 10.8153C30.9339 10.8153 29.0383 10.8155 27.143 10.8153C26.7851 10.8153 26.7841 10.8141 26.7839 10.4595C26.7833 9.46931 26.7899 8.47907 26.7794 7.48904C26.7767 7.24767 26.8631 7.17851 27.0952 7.17871C30.9192 7.18387 34.7431 7.18387 38.5671 7.17871C38.8015 7.1783 38.8834 7.2518 38.8809 7.4909C38.8706 8.49745 38.8702 9.50441 38.8809 10.511C38.8836 10.7532 38.797 10.8203 38.5653 10.8194C36.6533 10.8124 34.7412 10.8153 32.8294 10.8153Z" fill="#DA251D"/>
</g>
<defs>
<clipPath id="clip0_406_23480">
<rect width="67.2453" height="18" fill="white"/>
</clipPath>
</defs>
</svg>
