<svg width="28" height="28" viewBox="0 0 28 28" fill="none" xmlns="http://www.w3.org/2000/svg">
<path d="M9.61113 16.4197C9.7041 16.4577 9.80585 16.4688 9.90485 16.452C10.0038 16.4351 10.0961 16.3908 10.1713 16.3242L11.0337 15.4618C11.0904 15.4028 11.1216 15.3239 11.1208 15.2421C11.12 15.1603 11.0871 15.0821 11.0293 15.0243C10.9714 14.9664 10.8932 14.9336 10.8114 14.9328C10.7296 14.9319 10.6508 14.9632 10.5918 15.0199L9.79042 15.8213C7.06262 14.9447 4.29678 17.9826 5.55263 20.5769C5.57708 20.6177 5.61048 20.6525 5.65031 20.6786C5.69014 20.7046 5.73537 20.7213 5.78259 20.7274C5.8298 20.7335 5.87779 20.7288 5.92292 20.7136C5.96806 20.6985 6.00917 20.6733 6.04317 20.64L6.51329 20.1706C6.93886 19.7464 7.39158 19.2951 7.7497 18.9304C7.8179 18.8744 7.77707 18.8759 7.8414 18.8907C8.26118 19.0147 8.56277 19.071 8.85154 19.1452C8.95254 19.4528 8.98079 19.7276 9.12087 20.1782C9.13462 20.2152 9.1242 20.2073 9.09522 20.2414C8.57844 20.7431 7.92983 21.397 7.36625 21.9641C7.33029 22.0003 7.30374 22.0448 7.28891 22.0936C7.27407 22.1424 7.27141 22.1941 7.28114 22.2442C7.29088 22.2943 7.31272 22.3412 7.34476 22.3809C7.37681 22.4206 7.41808 22.4519 7.46497 22.4719C8.07653 22.7322 8.75046 22.8095 9.40507 22.6945C10.0597 22.5794 10.6669 22.277 11.153 21.8238C11.6518 21.3837 12.0144 20.8102 12.1981 20.1709C12.3817 19.5316 12.3788 18.8531 12.1897 18.2154L13.0619 17.3432C13.1186 17.2842 13.1498 17.2053 13.149 17.1235C13.1482 17.0417 13.1153 16.9635 13.0575 16.9057C12.9996 16.8478 12.9214 16.815 12.8396 16.8142C12.7578 16.8134 12.679 16.8446 12.62 16.9013L11.6668 17.8543C11.6107 17.9237 11.5731 18.006 11.5574 18.0938C11.5417 18.1816 11.5485 18.2719 11.5771 18.3564C12.2882 20.38 10.2256 22.5964 8.16485 22.0471C8.62968 21.5799 9.12254 21.0855 9.53346 20.687C9.62998 20.6038 9.69927 20.4934 9.73232 20.3703C9.76538 20.2473 9.76069 20.1171 9.71885 19.9967C9.62776 19.6863 9.57619 19.4593 9.5385 19.2936C9.40361 18.6994 9.31007 18.6069 8.70445 18.4674C8.5395 18.4293 8.31779 18.3783 8.02086 18.2923C7.89556 18.249 7.76009 18.2448 7.63236 18.2803C7.50463 18.3157 7.39066 18.389 7.30553 18.4906C6.94709 18.8556 6.49604 19.3055 6.072 19.7281L5.95131 19.8487C5.40338 17.8303 7.6254 15.7433 9.61113 16.4197Z" fill="white"/>
<path d="M18.3353 11.5713C18.2534 11.5472 18.1669 11.5433 18.0831 11.5599C17.9994 11.5766 17.9209 11.6132 17.8544 11.6668L16.9012 12.62C16.8445 12.679 16.8133 12.7579 16.8141 12.8396C16.815 12.9214 16.8479 12.9996 16.9057 13.0574C16.9635 13.1152 17.0417 13.1481 17.1235 13.1489C17.2052 13.1498 17.2841 13.1185 17.3431 13.0619L18.2169 12.188C20.9614 13.0605 23.65 10.1084 22.4719 7.46495C22.4515 7.4184 22.4201 7.37749 22.3804 7.34574C22.3407 7.31399 22.2939 7.29234 22.244 7.28263C22.1941 7.27293 22.1426 7.27548 22.0939 7.29004C22.0452 7.30461 22.0007 7.33077 21.9643 7.36627L21.7715 7.55791C21.2549 8.07137 20.6866 8.63641 20.245 9.09188C20.2005 9.13041 20.2201 9.13371 20.1726 9.11919C19.7399 8.99059 19.4536 8.93843 19.1587 8.86482C19.1227 8.76704 19.0952 8.66637 19.0763 8.56391C19.0378 8.39366 18.9725 8.11967 18.881 7.80616C18.8949 7.78633 18.9108 7.76802 18.9286 7.75153C19.4284 7.26052 20.0988 6.58489 20.64 6.04316C20.6738 6.00939 20.6994 5.96832 20.7148 5.92311C20.7302 5.87791 20.7351 5.82976 20.729 5.78239C20.709 5.6055 20.5498 5.5221 20.3936 5.46791C17.8195 4.43271 14.9743 7.13713 15.8218 9.79002L15.0199 10.5918C14.9632 10.6508 14.932 10.7297 14.9328 10.8115C14.9336 10.8933 14.9665 10.9715 15.0243 11.0293C15.0822 11.0872 15.1604 11.12 15.2422 11.1208C15.324 11.1216 15.4028 11.0904 15.4618 11.0337L16.3244 10.1713C16.3897 10.0983 16.4336 10.0087 16.4513 9.91231C16.4689 9.81594 16.4596 9.71657 16.4243 9.62517C15.7431 7.62504 17.8184 5.40788 19.8483 5.95182L19.73 6.07033C19.3069 6.49468 18.8563 6.94664 18.4887 7.30752C18.3883 7.39187 18.3157 7.50457 18.2804 7.63087C18.245 7.75716 18.2487 7.89118 18.2908 8.01537C18.557 8.79776 18.3834 9.40613 19.2936 9.5385C19.4593 9.57621 19.6864 9.62778 19.9908 9.7172C20.1126 9.75983 20.2445 9.76482 20.3693 9.73151C20.494 9.6982 20.6058 9.62814 20.6902 9.53043C21.0861 9.12226 21.5801 8.62971 22.0475 8.16492C22.5921 10.2369 20.3811 12.2908 18.3353 11.5713Z" fill="white"/>
<path d="M22.3924 20.4069C22.3446 20.2035 22.241 20.0174 22.0933 19.8696C21.9455 19.7218 21.7594 19.6182 21.556 19.5704L21.1492 19.4767C21.0595 19.456 20.9775 19.4106 20.9125 19.3455L15.7366 14.1696C15.9775 13.9191 16.382 13.619 16.2686 13.2433C16.1135 12.5343 14.4849 12.8417 14.5916 12.1337C14.5891 11.8 14.5132 11.4708 14.3692 11.1698C14.2252 10.8687 14.0167 10.603 13.7584 10.3916C12.4921 9.1575 11.2216 7.87957 9.99315 6.64361L8.97875 5.62386C8.9018 5.51948 8.8033 5.43287 8.68994 5.36988C8.57658 5.30689 8.45101 5.26901 8.32173 5.25879C8.19245 5.24858 8.06249 5.26627 7.94064 5.31067C7.8188 5.35508 7.70792 5.42515 7.61553 5.51615C6.91317 6.21468 6.21432 6.91354 5.53088 7.60155C5.43623 7.69286 5.36268 7.80373 5.31536 7.92642C5.26804 8.04912 5.24809 8.18067 5.25692 8.31187C5.26574 8.44308 5.30312 8.57077 5.36644 8.68603C5.42976 8.80128 5.5175 8.90131 5.62351 8.97912C7.20174 10.5504 8.82515 12.1526 10.3913 13.7588C10.6038 14.0181 10.8711 14.2272 11.1739 14.3712C11.4767 14.5151 11.8077 14.5904 12.143 14.5915C12.5701 14.513 12.6745 15.2732 12.8125 15.803C12.8385 15.9343 12.9077 16.053 13.0091 16.1404C13.1104 16.2278 13.2381 16.2788 13.3718 16.2852C13.7029 16.2949 13.9395 15.9472 14.1692 15.7371L19.3451 20.9129C19.4102 20.9778 19.4556 21.0598 19.4762 21.1494L19.5702 21.5565C19.618 21.7599 19.7216 21.946 19.8693 22.0937C20.0171 22.2415 20.2031 22.3451 20.4065 22.393L21.875 22.7317C21.993 22.759 22.116 22.7558 22.2325 22.7224C22.3489 22.689 22.4549 22.6265 22.5405 22.5409C22.6262 22.4553 22.6886 22.3492 22.722 22.2328C22.7554 22.1164 22.7586 21.9934 22.7314 21.8754L22.3924 20.4069ZM13.4081 15.612C12.8695 12.9532 12.1233 14.7446 10.8389 13.3227C9.26662 11.7097 7.63443 10.0998 6.05181 8.52349C5.90456 8.41264 5.78852 8.20092 5.95888 8.05657C6.65652 7.35513 7.35476 6.65689 8.07055 5.94415C8.20327 5.7935 8.42211 5.91225 8.52312 6.05218C10.1001 7.63577 11.7087 9.26624 13.3223 10.8393C13.7273 11.2336 13.9763 11.5858 13.9668 12.1128C13.9226 13.0146 14.7643 13.2084 15.3211 13.3367C15.4224 13.3601 15.521 13.3825 15.6116 13.4083C14.8818 14.1494 14.1413 14.8899 13.4081 15.612ZM22.0986 22.0991C22.0879 22.1099 22.0747 22.1177 22.0602 22.1218C22.0456 22.1259 22.0302 22.1262 22.0156 22.1226L20.5472 21.7838C20.1874 21.7181 20.1524 21.2952 20.0852 21.0087C20.0381 20.8051 19.9348 20.6188 19.7872 20.471L14.6141 15.2982L15.2977 14.6146L20.4706 19.7874C20.6185 19.9353 20.805 20.0387 21.0088 20.0858C21.2967 20.1539 21.7153 20.1854 21.7833 20.5473L22.1224 22.0158C22.126 22.0305 22.1257 22.046 22.1215 22.0606C22.1174 22.0752 22.1094 22.0885 22.0986 22.0991Z" fill="white"/>
</svg>
