<svg width="24" height="24" viewBox="0 0 24 24" fill="none" xmlns="http://www.w3.org/2000/svg">
<g clip-path="url(#clip0_406_26036)">
<path d="M0 0V6.32915H6.33011V0H0ZM5.12839 5.12761H1.20172V1.20154H5.12835V5.12757L5.12839 5.12761Z" fill="#C8C7C6"/>
<path d="M8.82227 0V6.32915H15.1524V0H8.82227ZM13.9507 5.12761H10.024V1.20154H13.9507V5.12761Z" fill="#C8C7C6"/>
<path d="M17.6699 0V6.32915H24V0H17.6699ZM22.7983 5.12761H18.8716V1.20154H22.7983V5.12761Z" fill="#C8C7C6"/>
<path d="M0 8.84961V15.1788H6.33011V8.84961H0ZM5.12839 13.9772H1.20172V10.0512H5.12835L5.12839 13.9772Z" fill="#C8C7C6"/>
<path d="M8.82227 8.84961V15.1788H15.1524V8.84961H8.82227ZM13.9507 13.9772H10.024V10.0512H13.9507V13.9772Z" fill="#C8C7C6"/>
<path d="M17.6699 8.84961V15.1788H24V8.84961H17.6699ZM22.7983 13.9772H18.8716V10.0512H22.7983V13.9772Z" fill="#C8C7C6"/>
<path d="M0 17.6709V24H6.33011V17.6709H0ZM5.12839 22.7985H1.20172V18.8725H5.12835L5.12839 22.7985Z" fill="#C8C7C6"/>
<path d="M8.82227 17.6709V24H15.1524V17.6709H8.82227ZM13.9507 22.7985H10.024V18.8725H13.9507V22.7985Z" fill="#C8C7C6"/>
<path d="M17.6699 17.6709V24H24V17.6709H17.6699ZM22.7983 22.7985H18.8716V18.8725H22.7983V22.7985Z" fill="#C8C7C6"/>
<path d="M8.9342 2.5249H6.28125V3.80052H8.9342V2.5249Z" fill="#C8C7C6"/>
<path d="M17.7819 2.5249H15.1289V3.80052H17.7819V2.5249Z" fill="#C8C7C6"/>
<path d="M8.89905 20.2104H6.24609V21.4861H8.89905V20.2104Z" fill="#C8C7C6"/>
<path d="M17.7467 20.2104H15.0938V21.4861H17.7467V20.2104Z" fill="#C8C7C6"/>
<path d="M20.1953 15.1004V17.7529H21.4711V15.1004H20.1953Z" fill="#C8C7C6"/>
<path d="M20.1953 6.25516V8.90771H21.4711V6.25516H20.1953Z" fill="#C8C7C6"/>
<path d="M2.51562 15.1585V17.811H3.79144V15.1585H2.51562Z" fill="#C8C7C6"/>
<path d="M2.51562 6.31327V8.96582H3.79144V6.31327H2.51562Z" fill="#C8C7C6"/>
<path d="M14 10H10V14H14V10Z" fill="white"/>
</g>
<defs>
<clipPath id="clip0_406_26036">
<rect width="24" height="24" fill="white"/>
</clipPath>
</defs>
</svg>
