<svg width="16" height="16" viewBox="0 0 16 16" fill="none" xmlns="http://www.w3.org/2000/svg">
<g clip-path="url(#clip0_180_2412)">
<path d="M0.185646 1.0825C-0.061882 0.834968 -0.061882 0.433532 0.185646 0.185874C0.433174 -0.0617843 0.83461 -0.0617843 1.08227 0.185874L7.9999 7.10351L14.9175 0.185744C15.1651 -0.0619146 15.5665 -0.0619146 15.8143 0.185744C16.0618 0.433272 16.0618 0.834837 15.8143 1.08237L8.89639 7.99987L15.8142 14.9176C16.0617 15.1652 16.0617 15.5666 15.8142 15.8143C15.5665 16.0619 15.1651 16.0619 14.9174 15.8143L7.99977 8.89662L1.08227 15.8144C0.83474 16.062 0.433304 16.062 0.185646 15.8144C-0.061882 15.5669 -0.061882 15.1654 0.185646 14.9178L7.10328 8L0.185646 1.0825Z" fill="white"/>
</g>
<defs>
<clipPath id="clip0_180_2412">
<rect width="15.9999" height="16" fill="white"/>
</clipPath>
</defs>
</svg>
