<svg width="29" height="28" viewBox="0 0 29 28" fill="none" xmlns="http://www.w3.org/2000/svg">
<path d="M7.85853 19.0509C7.48939 19.4201 7.47181 20.0792 7.86732 20.466C8.25404 20.8527 8.91322 20.8439 9.28236 20.4747L14.6613 15.087L20.049 20.4747C20.4269 20.8527 21.0773 20.8527 21.464 20.466C21.8419 20.0704 21.8507 19.4288 21.464 19.0509L16.0851 13.6632L21.464 8.28431C21.8507 7.90638 21.8507 7.25599 21.464 6.86927C21.0685 6.49134 20.4269 6.48255 20.049 6.86048L14.6613 12.2482L9.28236 6.86048C8.91322 6.49134 8.24525 6.47376 7.86732 6.86927C7.4806 7.25599 7.48939 7.91517 7.85853 8.28431L13.2462 13.6632L7.85853 19.0509Z" fill="white"/>
</svg>
