<svg width="23" height="14" viewBox="0 0 23 14" fill="none" xmlns="http://www.w3.org/2000/svg">
<path d="M11.1127 14C17.7447 14 22.2172 8.65396 22.2172 6.99596C22.2172 5.33795 17.7366 0 11.1127 0C4.5777 0 0 5.33795 0 6.99596C0 8.65396 4.56961 14 11.1127 14ZM11.1127 12.4471C5.94454 12.4471 1.83593 8.12825 1.83593 6.99596C1.83593 6.04968 5.94454 1.55286 11.1127 1.55286C16.2727 1.55286 20.3894 6.04968 20.3894 6.99596C20.3894 8.12825 16.2727 12.4471 11.1127 12.4471ZM11.1127 11.3553C13.539 11.3553 15.4801 9.37377 15.4801 6.99596C15.4801 4.56153 13.539 2.64471 11.1127 2.64471C8.67822 2.64471 6.72906 4.56153 6.73715 6.99596C6.75332 9.37377 8.67822 11.3553 11.1127 11.3553ZM11.1127 8.40324C10.3281 8.40324 9.6892 7.77239 9.6892 6.99596C9.6892 6.21953 10.3281 5.58868 11.1127 5.58868C11.8972 5.58868 12.528 6.21953 12.528 6.99596C12.528 7.77239 11.8972 8.40324 11.1127 8.40324Z" fill="#C8C7C6"/>
</svg>
