<svg width="28" height="28" viewBox="0 0 28 28" fill="none" xmlns="http://www.w3.org/2000/svg">
<g clip-path="url(#clip0_351_982)">
<path d="M3.71703 23C4.66381 23 5.43415 22.2141 5.43415 21.2483C5.43415 20.5718 5.05557 19.9848 4.50391 19.693L6.0992 15.0539C6.20744 15.0758 6.3192 15.0879 6.43368 15.0879C7.01344 15.0879 7.52601 14.7924 7.83707 14.3422L10.8859 17.7178C10.6495 18.0181 10.5071 18.3986 10.5071 18.8127C10.5071 19.7786 11.2774 20.5645 12.2242 20.5645C13.1709 20.5645 13.9412 19.7786 13.9412 18.8127C13.9412 18.5681 13.8914 18.3353 13.8023 18.1236L17.5929 15.0804C17.8839 15.3113 18.2481 15.4502 18.6443 15.4502C19.5911 15.4502 20.3615 14.6643 20.3615 13.6985C20.3615 13.3162 20.2394 12.9632 20.0349 12.6749L23.4065 9.25561C23.6635 9.41205 23.9625 9.50369 24.2829 9.50369C25.2297 9.50369 26 8.7178 26 7.75189C26 6.78598 25.2296 6 24.2828 6C23.336 6 22.5657 6.7859 22.5657 7.75173C22.5657 8.12616 22.6824 8.47266 22.8793 8.75768L19.5018 12.183C19.2491 12.0335 18.9567 11.9466 18.6443 11.9466C17.6975 11.9466 16.9272 12.7325 16.9272 13.6984C16.9272 13.9956 17.0006 14.2754 17.1291 14.5209L13.3856 17.5264C13.0795 17.2384 12.6721 17.0609 12.2239 17.0609C11.9426 17.0609 11.6776 17.1316 11.4431 17.2545L8.13081 13.5872C8.14244 13.5049 8.15056 13.4216 8.15056 13.336C8.15056 12.3701 7.38023 11.5842 6.43352 11.5842C5.48682 11.5842 4.71649 12.3701 4.71649 13.336C4.71649 13.9237 5.00259 14.4435 5.43914 14.7614L3.8092 19.5012C3.77853 19.4996 3.74817 19.4965 3.71711 19.4965C2.77033 19.4965 2 20.2824 2 21.2483C2 22.2142 2.77025 23 3.71703 23ZM24.2828 6.73208C24.8339 6.73208 25.2823 7.18947 25.2823 7.75173C25.2823 8.31398 24.8339 8.77146 24.2828 8.77146C23.7317 8.77146 23.2834 8.31406 23.2834 7.75173C23.2834 7.18939 23.7317 6.73208 24.2828 6.73208ZM18.6443 12.6787C19.1954 12.6787 19.6437 13.1361 19.6437 13.6984C19.6437 14.2606 19.1954 14.718 18.6443 14.718C18.0932 14.718 17.6448 14.2606 17.6448 13.6984C17.6448 13.1361 18.0932 12.6787 18.6443 12.6787ZM13.2235 18.8126C13.2235 19.3749 12.7751 19.8323 12.224 19.8323C11.6729 19.8323 11.2246 19.3749 11.2246 18.8126C11.2246 18.2504 11.6729 17.793 12.224 17.793C12.7751 17.793 13.2235 18.2504 13.2235 18.8126ZM6.43352 12.3164C6.98464 12.3164 7.43298 12.7738 7.43298 13.336C7.43298 13.8983 6.98464 14.3557 6.43352 14.3557C5.88241 14.3557 5.43407 13.8983 5.43407 13.336C5.43407 12.7738 5.88241 12.3164 6.43352 12.3164ZM3.71703 20.2285C4.26815 20.2285 4.71649 20.6859 4.71649 21.2482C4.71649 21.8104 4.26815 22.2678 3.71703 22.2678C3.16592 22.2678 2.71758 21.8104 2.71758 21.2482C2.71758 20.6859 3.16592 20.2285 3.71703 20.2285Z" fill="white"/>
</g>
<defs>
<clipPath id="clip0_351_982">
<rect width="24" height="17" fill="white" transform="translate(2 6)"/>
</clipPath>
</defs>
</svg>
