<svg width="9" height="12" viewBox="0 0 9 12" fill="none" xmlns="http://www.w3.org/2000/svg">
<path d="M0.425684 6.95978C0.643211 6.44639 0.952146 5.96263 1.49575 5.68764C1.62286 5.62333 1.75812 5.58081 1.89909 5.57385C1.99479 5.56911 2.01907 5.52629 2.01778 5.43398C2.00836 4.69523 2.00278 3.95663 1.9955 3.21788C1.99164 2.82495 1.98493 2.43202 1.98379 2.03909C1.9835 1.95211 1.95808 1.91804 1.87067 1.90529C1.45119 1.84455 1.12197 1.48658 1.0874 1.06461C1.05198 0.632115 1.31836 0.224366 1.72527 0.0865734C1.85039 0.0441983 1.97979 0.0483469 2.10819 0.0468653C3.53604 0.030419 4.96403 0.0138246 6.39202 4.52793e-05C6.95433 -0.00543681 7.37852 0.487655 7.30783 1.05705C7.25941 1.44702 6.96075 1.7755 6.56984 1.85106C6.46329 1.87166 6.43701 1.917 6.43843 2.02205C6.453 3.13402 6.465 4.246 6.47286 5.35797C6.47371 5.47146 6.50442 5.51428 6.61711 5.52495C7.10715 5.57148 7.45065 5.87536 7.74131 6.25214C8.06495 6.67175 8.24334 7.15313 8.2702 7.69334C8.28976 8.08598 8.11494 8.28348 7.73845 8.28718C6.83707 8.29607 5.93568 8.30585 5.0343 8.31593C4.86348 8.31785 4.86262 8.31904 4.84677 8.49373C4.75107 9.54199 4.6558 10.5901 4.56025 11.6384C4.5564 11.6813 4.55254 11.7245 4.54626 11.7673C4.52555 11.9089 4.43842 11.9968 4.31716 11.9999C4.18576 12.0031 4.10221 11.9337 4.07564 11.7851C4.03608 11.5649 4.0028 11.3435 3.96723 11.1226C3.82341 10.2273 3.67901 9.33204 3.53761 8.43624C3.52533 8.3583 3.4969 8.33163 3.42035 8.33267C2.57195 8.34467 1.72341 8.35326 0.874877 8.36319C0.726765 8.36497 0.578795 8.37282 0.452679 8.266C0.34413 8.17399 0.277144 8.06212 0.272573 7.91425C0.263004 7.60015 0.316707 7.29685 0.425684 6.95978ZM3.41506 1.91685C3.26152 1.85595 3.11884 1.97256 3.12012 2.15495C3.12369 2.63811 3.12969 3.12128 3.13469 3.60444C3.14055 4.16999 3.14598 4.73568 3.15255 5.30122C3.15469 5.48243 3.27024 5.57888 3.4252 5.53221C3.52804 5.50125 3.56703 5.42746 3.56546 5.26848C3.55932 4.59685 3.55346 3.92522 3.54718 3.25359C3.54375 2.88822 3.53918 2.52299 3.53632 2.15777C3.53547 2.05198 3.50533 1.965 3.41506 1.91685Z" fill="#CECECF"/>
</svg>
