<svg width="18" height="18" viewBox="0 0 18 18" fill="none" xmlns="http://www.w3.org/2000/svg">
<g clip-path="url(#clip0_180_2394)">
<path fill-rule="evenodd" clip-rule="evenodd" d="M16.04 16.6523H15.148C15.0894 16.6523 15.041 16.6055 15.041 16.5469V10.1631C15.041 10.0312 15.0161 9.92139 14.9692 9.83789C14.9605 9.82178 14.9487 9.80566 14.9399 9.79248C14.9312 9.7793 14.9165 9.76611 14.9063 9.75293L14.9033 9.75C14.8594 9.70605 14.8037 9.67236 14.7393 9.64893L14.7026 9.63867L14.6968 9.63721H14.6953C14.6353 9.62109 14.5664 9.6123 14.4932 9.6123H5.3833C5.25293 9.6123 5.146 9.63721 5.06397 9.68408L5.06104 9.68555L5.02148 9.71045L5.01563 9.71631C5.00244 9.72656 4.98926 9.73828 4.97607 9.75L4.97315 9.75293L4.97168 9.75439C4.88086 9.84668 4.83691 9.98438 4.83691 10.1675V16.5513C4.83691 16.6099 4.78857 16.6567 4.72998 16.6567H3.28711C3.25928 16.6567 3.23145 16.645 3.2124 16.626L1.4458 14.855C1.41943 14.8345 1.40332 14.8022 1.40332 14.7686V1.87939C1.40332 1.75781 1.42529 1.65674 1.46777 1.57617C1.4751 1.56006 1.48389 1.54688 1.49268 1.53369L1.49561 1.5293C1.50586 1.51318 1.52344 1.50293 1.53223 1.48682L1.53369 1.48389L1.53662 1.48096C1.57324 1.44434 1.62012 1.41504 1.67139 1.39453L1.67725 1.3916L1.68018 1.39014L1.68311 1.38867L1.70947 1.37988L1.71094 1.37842C1.77246 1.35791 1.84277 1.34912 1.92188 1.34766L1.93506 1.34619H5.77441C5.83301 1.34619 5.88135 1.39307 5.88135 1.45166V5.66309C5.88135 5.73926 5.88867 5.81396 5.90039 5.88281C5.91357 5.9502 5.92236 6.02637 5.95752 6.0791L5.95898 6.08203V6.0835C5.98535 6.14795 6.02051 6.21094 6.05713 6.2666C6.09229 6.3208 6.13916 6.37939 6.18897 6.43213L6.1919 6.43506V6.43652H6.19336C6.26367 6.50977 6.33106 6.60498 6.43067 6.62256H6.43359L6.43506 6.62402L6.48193 6.64893L6.54053 6.67529H6.54199C6.59033 6.6958 6.64014 6.71338 6.68848 6.7251H6.7002L6.73828 6.73242C6.8042 6.74561 6.87451 6.75293 6.94629 6.75293H13.9512C14.1021 6.75293 14.2412 6.72656 14.3687 6.67529L14.3701 6.67383C14.4976 6.62109 14.6147 6.54199 14.7202 6.43799L14.7246 6.43359C14.7773 6.38086 14.8257 6.32373 14.8652 6.26367C14.9033 6.20801 14.9502 6.15234 14.9619 6.08496V6.0835L14.9634 6.08203L14.9648 6.0791C14.9912 6.01611 15.0147 5.9502 15.0249 5.88281V5.87842C15.0381 5.80957 15.0439 5.73633 15.0439 5.66016V1.45312C15.0439 1.39453 15.0923 1.34619 15.1509 1.34619H16.0298C16.1147 1.34619 16.1895 1.35645 16.2554 1.37695C16.3257 1.39893 16.3857 1.43408 16.4312 1.47949C16.5308 1.57764 16.5601 1.72412 16.563 1.85889L16.5645 1.87207V16.1191C16.5645 16.2012 16.5542 16.2759 16.5337 16.3403L16.5322 16.3447V16.3477L16.5205 16.3799L16.5176 16.3887L16.5044 16.418L16.5029 16.4238L16.5 16.4297L16.4956 16.4385L16.4736 16.4707L16.4663 16.4824L16.4458 16.5073L16.437 16.5176C16.415 16.541 16.3887 16.5615 16.3594 16.5791C16.3345 16.5938 16.3066 16.6069 16.2788 16.6172L16.27 16.6201C16.2466 16.6274 16.2202 16.6348 16.1924 16.6406H16.1851L16.1719 16.6421H16.166C16.1338 16.6465 16.0942 16.6494 16.0547 16.6509H16.04V16.6523ZM7.8999 15.2974C7.65674 15.2974 7.46045 15.1011 7.46045 14.8579C7.46045 14.6147 7.65674 14.4185 7.8999 14.4185H12.4585C12.7017 14.4185 12.898 14.6147 12.898 14.8579C12.898 15.1011 12.7017 15.2974 12.4585 15.2974H7.8999ZM7.8999 13.0415C7.65674 13.0415 7.46045 12.8452 7.46045 12.6021C7.46045 12.3589 7.65674 12.1626 7.8999 12.1626H12.4585C12.7017 12.1626 12.898 12.3589 12.898 12.6021C12.898 12.8452 12.7017 13.0415 12.4585 13.0415H7.8999ZM13.7739 1.37549L7.13525 1.34619V5.13428H7.13379C7.13379 5.20166 7.14258 5.26025 7.15869 5.31006C7.16309 5.31885 7.16455 5.32471 7.16895 5.33203C7.18213 5.36572 7.20117 5.39648 7.22754 5.42139L7.23193 5.42578C7.24072 5.43457 7.24805 5.44043 7.25684 5.44775C7.26563 5.45508 7.27588 5.46094 7.28613 5.46826C7.34326 5.50195 7.4209 5.51807 7.51758 5.51807L13.3916 5.55469C13.5249 5.55469 13.6216 5.52393 13.6816 5.4624C13.7432 5.39941 13.7739 5.30127 13.7739 5.1665V1.37549ZM6.13916 10.7271H13.9131C13.9644 10.7271 14.0083 10.7695 14.0083 10.8208V16.5586C14.0083 16.6099 13.9658 16.6538 13.9131 16.6538H6.13916C6.08789 16.6538 6.04395 16.6113 6.04395 16.5601V10.8223C6.04395 10.7695 6.08789 10.7271 6.13916 10.7271ZM1.41797 0H16.6904C17.4097 0 17.978 0.56543 17.978 1.2876V16.6992C17.978 17.4243 17.4067 18 16.6904 18H2.53857L2.50342 17.9634L0.153809 15.6152L0 15.5127V1.2832C0 0.480469 0.70459 0 1.41797 0Z" fill="white"/>
</g>
<defs>
<clipPath id="clip0_180_2394">
<rect width="17.978" height="18" fill="white"/>
</clipPath>
</defs>
</svg>
