<svg width="17" height="20" viewBox="0 0 17 20" fill="none" xmlns="http://www.w3.org/2000/svg">
<g clip-path="url(#clip0_180_2384)">
<path fill-rule="evenodd" clip-rule="evenodd" d="M6.48763 8.09245H12.0475C12.0817 8.09245 12.1126 8.0778 12.1354 8.05501L12.1468 8.04525C12.1631 8.02409 12.1729 7.99642 12.1729 7.96712V3.01432L9.71517 0.924479H6.48763C6.45508 0.924479 6.42415 0.939128 6.39974 0.961914C6.37695 0.984701 6.3623 1.01725 6.3623 1.0498V7.96712C6.3623 8.0013 6.37533 8.03223 6.39811 8.05501L6.39974 8.05664L6.40137 8.05501C6.42253 8.0778 6.45345 8.09245 6.48763 8.09245ZM14.6029 18.7728H13.7907C13.737 18.7728 13.693 18.7305 13.693 18.6768V12.8662C13.693 12.7458 13.6702 12.6465 13.6279 12.57C13.6198 12.5553 13.61 12.5407 13.6019 12.5293C13.5938 12.5179 13.5807 12.5049 13.571 12.4935L13.5677 12.4902C13.527 12.4495 13.4766 12.4202 13.418 12.3975L13.3854 12.3877L13.3805 12.3861H13.3789C13.3236 12.3714 13.2617 12.3633 13.195 12.3633H4.90072C4.7819 12.3633 4.68425 12.3861 4.60938 12.4284L4.60612 12.43L4.57031 12.4528L4.56543 12.4577C4.55404 12.4674 4.54102 12.4772 4.52962 12.4886L4.52637 12.4919L4.52474 12.4935C4.44173 12.5781 4.40267 12.7035 4.40267 12.8695V18.68C4.40267 18.7337 4.35872 18.776 4.30501 18.776H2.99154C2.96549 18.776 2.94108 18.7647 2.92318 18.7484L1.3151 17.1354C1.29069 17.1175 1.27604 17.0866 1.27604 17.0573V5.32389C1.27604 5.21322 1.29557 5.12044 1.33464 5.0472C1.34115 5.03255 1.34928 5.02116 1.35742 5.00814L1.36068 5.00488C1.37044 4.99023 1.38672 4.98047 1.39323 4.96582L1.39486 4.96257L1.39811 4.95931C1.43066 4.92676 1.47461 4.89909 1.52018 4.88119L1.52507 4.87793L1.52832 4.8763L1.53158 4.87467L1.55599 4.86654L1.55762 4.86491C1.61296 4.84701 1.67806 4.83887 1.74967 4.83724L1.76107 4.83561H5.43783V7.96224C5.43783 8.2487 5.55664 8.51074 5.74707 8.7028L5.74544 8.70443C5.93587 8.89486 6.19792 9.01204 6.486 9.01204H12.0459C12.3356 9.01204 12.5977 8.89486 12.7881 8.70443C12.7995 8.69303 12.8092 8.68164 12.819 8.67025C12.9915 8.48307 13.0973 8.23405 13.0973 7.96224V4.83887H14.5931C14.6712 4.83887 14.738 4.84863 14.7982 4.86654C14.8617 4.88607 14.917 4.91862 14.9577 4.95931C15.0488 5.04883 15.0749 5.18229 15.0781 5.30436L15.0798 5.31576V18.2861C15.0798 18.361 15.07 18.4294 15.0521 18.488L15.0505 18.4912V18.4945L15.0391 18.5238L15.0358 18.5319L15.0244 18.5579L15.0228 18.5628L15.0195 18.5677L15.0163 18.5758L14.9967 18.6051L14.9902 18.6165L14.9723 18.6393L14.9642 18.6491C14.9447 18.6702 14.9202 18.6898 14.8942 18.7044C14.8714 18.7174 14.847 18.7305 14.821 18.7386L14.8112 18.7435C14.79 18.75 14.7656 18.7565 14.7412 18.763H14.7331L14.7217 18.7646H14.7152C14.6859 18.7679 14.6501 18.7712 14.6143 18.7728H14.6029ZM5.43783 3.61328H1.29069C0.641276 3.61328 0 4.05111 0 4.7819V17.736L0.139974 17.8288L2.27865 19.9674L2.3112 20H15.1937C15.8464 20 16.3656 19.4759 16.3656 18.8151V4.78516C16.3656 4.1276 15.848 3.61328 15.1937 3.61328H13.0973V2.80436C13.0973 2.64648 13.0176 2.50651 12.8971 2.4235L10.1807 0.112305C10.0944 0.0390625 9.98861 0.00325521 9.88281 0.00325521V0H6.48763C6.19954 0 5.9375 0.118815 5.74707 0.309245C5.55664 0.499674 5.43783 0.761719 5.43783 1.0498V3.61328ZM7.19238 17.5391C6.97103 17.5391 6.79199 17.36 6.79199 17.1387C6.79199 16.9173 6.97103 16.7383 7.19238 16.7383H11.3428C11.5641 16.7383 11.7432 16.9173 11.7432 17.1387C11.7432 17.36 11.5641 17.5391 11.3428 17.5391H7.19238ZM7.19238 15.4867C6.97103 15.4867 6.79199 15.3076 6.79199 15.0863C6.79199 14.8649 6.97103 14.6859 7.19238 14.6859H11.3428C11.5641 14.6859 11.7432 14.8649 11.7432 15.0863C11.7432 15.3076 11.5641 15.4867 11.3428 15.4867H7.19238ZM5.58919 13.3789H12.666C12.7132 13.3789 12.7523 13.418 12.7523 13.4635V18.6865C12.7523 18.7337 12.7132 18.7728 12.666 18.7728H5.58919C5.54199 18.7728 5.50293 18.7337 5.50293 18.6882V13.4652C5.50293 13.418 5.54199 13.3789 5.58919 13.3789Z" fill="white"/>
</g>
<defs>
<clipPath id="clip0_180_2384">
<rect width="16.3656" height="20" fill="white"/>
</clipPath>
</defs>
</svg>
