<svg width="28" height="28" viewBox="0 0 28 28" fill="none" xmlns="http://www.w3.org/2000/svg">
<g clip-path="url(#clip0_351_975)">
<path d="M13.4998 10.4064C11.2425 10.4064 9.40604 12.2428 9.40604 14.5001C9.40604 16.7575 11.2425 18.5939 13.4998 18.5939C15.7572 18.5939 17.5936 16.7575 17.5936 14.5001C17.5936 12.2428 15.7572 10.4064 13.4998 10.4064ZM13.4998 17.9718C11.5856 17.9718 10.0282 16.4144 10.0282 14.5002C10.0282 12.5859 11.5856 11.0285 13.4998 11.0285C15.4141 11.0285 16.9715 12.5859 16.9715 14.5002C16.9715 16.4144 15.4141 17.9718 13.4998 17.9718Z" fill="white"/>
<path d="M22.4364 12.9301L20.8428 12.6658C20.8227 12.6625 20.8061 12.6465 20.8007 12.6252C20.6285 11.9527 20.3634 11.3072 20.0128 10.7065C20.0016 10.6873 20.0025 10.6643 20.015 10.6477L20.9821 9.36894C21.1838 9.10213 21.1576 8.72258 20.9211 8.48604L19.5775 7.14243C19.3434 6.90838 18.9781 6.8783 18.7089 7.07089L17.3948 8.01114C17.3782 8.02295 17.3556 8.02351 17.3371 8.0125C16.7386 7.65781 16.0948 7.38838 15.4234 7.21165C15.4015 7.20589 15.3855 7.18882 15.3827 7.16817L15.1624 5.58116C15.1164 5.24983 14.8295 5 14.495 5H12.5948C12.2638 5 11.9843 5.23702 11.9301 5.56357L11.6657 7.15722C11.6624 7.17733 11.6465 7.19386 11.6251 7.19932C10.9527 7.37153 10.3071 7.63662 9.70642 7.98724C9.6873 7.99844 9.66423 7.99753 9.64768 7.98502L8.36889 7.01796C8.10208 6.81621 7.72253 6.84246 7.48602 7.07895L6.14241 8.42256C5.90835 8.65664 5.87827 9.02191 6.07089 9.29111L7.01114 10.6052C7.02295 10.6218 7.02349 10.6444 7.01253 10.6629C6.65784 11.2614 6.38838 11.9053 6.2117 12.5766C6.20594 12.5985 6.18885 12.6145 6.1682 12.6173L4.58119 12.8376C4.24985 12.8836 4 13.1705 4 13.505V15.4052C4 15.7362 4.23702 16.0158 4.56357 16.0699L6.15727 16.3343C6.17736 16.3376 6.19389 16.3535 6.19935 16.3748C6.37155 17.0473 6.63662 17.6928 6.98727 18.2936C6.99844 18.3127 6.99756 18.3357 6.98502 18.3523L6.01796 19.6311C5.81619 19.8979 5.84238 20.2774 6.07892 20.514L7.42253 21.8576C7.65661 22.0917 8.02191 22.1218 8.29111 21.9291L9.60525 20.9889C9.62175 20.9771 9.64439 20.9765 9.66292 20.9875C10.2614 21.3422 10.9053 21.6117 11.5766 21.7884C11.5985 21.7941 11.6145 21.8112 11.6173 21.8319L11.8376 23.4189C11.8836 23.7502 12.1705 24.0001 12.505 24.0001H14.4052C14.7362 24.0001 15.0158 23.763 15.0699 23.4365L15.3342 21.8428C15.3375 21.8227 15.3535 21.8062 15.3748 21.8007C16.0473 21.6285 16.6928 21.3635 17.2936 21.0128C17.3126 21.0016 17.3357 21.0025 17.3523 21.0151L18.6311 21.9821C18.8979 22.1839 19.2774 22.1577 19.514 21.9212L20.8576 20.5775C21.0916 20.3435 21.1218 19.9782 20.9291 19.709L19.9889 18.3948C19.9771 18.3783 19.9765 18.3557 19.9875 18.3372C20.3422 17.7386 20.6116 17.0948 20.7884 16.4234C20.7941 16.4016 20.8112 16.3856 20.8318 16.3828L22.4188 16.1625C22.7502 16.1165 23.0001 15.8296 23.0001 15.495V13.5949C23.0001 13.2639 22.763 12.9843 22.4365 12.9302L22.4364 12.9301ZM22.3779 15.495C22.3779 15.5206 22.3587 15.5426 22.3333 15.5462L20.7463 15.7664C20.4762 15.8039 20.2565 15.9996 20.1866 16.265C20.0246 16.8806 19.7776 17.471 19.4522 18.0199C19.3156 18.2506 19.3276 18.5398 19.4829 18.7568L20.4231 20.071C20.4379 20.0916 20.4356 20.1196 20.4176 20.1376L19.074 21.4812C19.0559 21.4993 19.0268 21.5013 19.0063 21.4859L17.7276 20.5188C17.5101 20.3543 17.2166 20.3373 16.9799 20.4755C16.429 20.797 15.837 21.0401 15.2204 21.198C14.9604 21.2646 14.7641 21.4778 14.7204 21.741L14.4561 23.3347C14.452 23.3597 14.4305 23.3779 14.4052 23.3779H12.505C12.4794 23.3779 12.4574 23.3587 12.4539 23.3333L12.2336 21.7463C12.1961 21.4762 12.0004 21.2565 11.735 21.1867C11.1194 21.0246 10.529 20.7776 9.98014 20.4523C9.87324 20.3889 9.75375 20.3575 9.63466 20.3575C9.49688 20.3575 9.35963 20.3996 9.24322 20.4829L7.9291 21.4231C7.90842 21.4379 7.88043 21.4356 7.86249 21.4176L6.51887 20.074C6.50074 20.0559 6.49871 20.0268 6.51419 20.0063L7.48125 18.7276C7.64574 18.5101 7.66275 18.2166 7.52459 17.9799C7.20305 17.429 6.95995 16.837 6.80208 16.2204C6.73546 15.9604 6.5223 15.7641 6.25906 15.7204L4.66538 15.4561C4.64033 15.452 4.62217 15.4305 4.62217 15.4051V13.505C4.62217 13.4794 4.64132 13.4574 4.66674 13.4538L6.25378 13.2335C6.52386 13.196 6.74352 13.0003 6.81338 12.7349C6.97541 12.1194 7.22247 11.5289 7.54776 10.9801C7.68444 10.7495 7.67244 10.4602 7.51717 10.2431L6.57692 8.92902C6.56216 8.9084 6.56446 8.88038 6.58241 8.86243L7.92602 7.51882C7.94418 7.50069 7.97327 7.49871 7.99368 7.51413L9.27244 8.48119C9.48989 8.64568 9.78337 8.66269 10.0201 8.52456C10.571 8.20303 11.163 7.95992 11.7795 7.80202C12.0396 7.73546 12.2359 7.5223 12.2796 7.259L12.5439 5.66535C12.5481 5.64031 12.5695 5.62215 12.5949 5.62215H14.495C14.5206 5.62215 14.5427 5.6413 14.5462 5.66672L14.7665 7.25375C14.804 7.52383 14.9997 7.7435 15.265 7.81335C15.8806 7.97538 16.4711 8.22247 17.0199 8.54776C17.2505 8.68442 17.5398 8.67244 17.7568 8.51714L19.071 7.57689C19.0916 7.56211 19.1196 7.56444 19.1376 7.58238L20.4812 8.92597C20.4993 8.9441 20.5013 8.97322 20.4858 8.99368L19.5188 10.2724C19.3543 10.4899 19.3373 10.7834 19.4754 11.0201C19.797 11.571 20.0401 12.163 20.198 12.7795C20.2646 13.0396 20.4777 13.2359 20.741 13.2796L22.3346 13.5439C22.3597 13.5481 22.3779 13.5695 22.3779 13.5949L22.3779 15.495Z" fill="white"/>
</g>
<defs>
<clipPath id="clip0_351_975">
<rect width="19" height="19" fill="white" transform="translate(4 5)"/>
</clipPath>
</defs>
</svg>
