<svg width="26" height="18" viewBox="0 0 26 18" fill="none" xmlns="http://www.w3.org/2000/svg">
<g clip-path="url(#clip0_180_2398)">
<path d="M25.3636 3.63731C25.3636 2.26797 24.2571 1.15385 22.897 1.15385H12.7467L12.3487 0.74039C11.896 0.269692 11.2629 0 10.6118 0H2.41845C1.08482 0 0 1.09224 0 2.43497V15.565C0 16.9078 1.08482 18 2.41845 18H22.9452C24.2788 18 25.3636 16.9078 25.3636 15.565V6.9827V3.63731ZM22.897 2.25551C23.6538 2.25551 24.2694 2.87537 24.2694 3.63731V4.2575C23.8886 4.00565 23.4338 3.85851 22.9452 3.85851H15.9105C15.5541 3.85851 15.2076 3.71071 14.9595 3.45313L13.8071 2.25585H22.897V2.25551ZM24.2694 15.5654C24.2694 16.3007 23.6752 16.8987 22.9452 16.8987H2.41845C1.6881 16.8987 1.09419 16.3004 1.09419 15.5654V2.43497C1.09419 1.69963 1.68843 1.10166 2.41845 1.10166H10.6118C10.9683 1.10166 11.3148 1.24947 11.5629 1.50704L14.1733 4.21945C14.6261 4.69015 15.2591 4.95984 15.9102 4.95984H22.9449C23.6752 4.95984 24.2691 5.55815 24.2691 6.29315V15.5654H24.2694Z" fill="white"/>
</g>
<defs>
<clipPath id="clip0_180_2398">
<rect width="25.3636" height="18" fill="white"/>
</clipPath>
</defs>
</svg>
