<svg width="21" height="20" viewBox="0 0 21 20" fill="none" xmlns="http://www.w3.org/2000/svg">
<path d="M3.55078 4.5835C3.55078 4.25198 3.68248 3.93403 3.9169 3.69961C4.15132 3.46519 4.46926 3.3335 4.80078 3.3335H14.8008C15.1323 3.3335 15.4502 3.46519 15.6847 3.69961C15.9191 3.93403 16.0508 4.25198 16.0508 4.5835V7.0835C16.0508 7.41502 15.9191 7.73296 15.6847 7.96738C15.4502 8.2018 15.1323 8.3335 14.8008 8.3335C14.4693 8.3335 14.1513 8.2018 13.9169 7.96738C13.6825 7.73296 13.5508 7.41502 13.5508 7.0835V5.8335H11.0508V14.1668H11.4674C11.799 14.1668 12.1169 14.2985 12.3513 14.5329C12.5858 14.7674 12.7174 15.0853 12.7174 15.4168C12.7174 15.7484 12.5858 16.0663 12.3513 16.3007C12.1169 16.5351 11.799 16.6668 11.4674 16.6668H8.13411C7.80259 16.6668 7.48465 16.5351 7.25023 16.3007C7.01581 16.0663 6.88411 15.7484 6.88411 15.4168C6.88411 15.0853 7.01581 14.7674 7.25023 14.5329C7.48465 14.2985 7.80259 14.1668 8.13411 14.1668H8.55078V5.8335H6.05078V7.0835C6.05078 7.41502 5.91909 7.73296 5.68466 7.96738C5.45024 8.2018 5.1323 8.3335 4.80078 8.3335C4.46926 8.3335 4.15132 8.2018 3.9169 7.96738C3.68248 7.73296 3.55078 7.41502 3.55078 7.0835V4.5835Z" fill="#C8C7C6"/>
</svg>
